<?xml version="1.0" standalone="no"?>
<!DOCTYPE svg PUBLIC "-//W3C//DTD SVG 20010904//EN"
 "http://www.w3.org/TR/2001/REC-SVG-20010904/DTD/svg10.dtd">
<svg version="1.0" xmlns="http://www.w3.org/2000/svg"
 width="12000.000000pt" height="6000.000000pt" viewBox="0 0 12000.000000 6000.000000"
 preserveAspectRatio="xMidYMid meet">

<g transform="translate(0.000000,6000.000000) scale(0.100000,-0.100000)"
fill="#000000" stroke="none">
<path d="M42478 43523 c-5 -89 3 -105 50 -101 l37 3 0 82 0 83 -42 0 -41 0 -4
-67z"/>
<path d="M42590 43316 c0 -2 8 -10 18 -17 15 -13 16 -12 3 4 -13 16 -21 21
-21 13z"/>
<path d="M42429 43293 c-13 -16 -12 -17 4 -4 16 13 21 21 13 21 -2 0 -10 -8
-17 -17z"/>
<path d="M42630 43286 c0 -2 8 -10 18 -17 15 -13 16 -12 3 4 -13 16 -21 21
-21 13z"/>
<path d="M42740 43195 c13 -14 26 -25 28 -25 3 0 -5 11 -18 25 -13 14 -26 25
-28 25 -3 0 5 -11 18 -25z"/>
<path d="M42294 43188 l-19 -23 23 19 c12 11 22 21 22 23 0 8 -8 2 -26 -19z"/>
<path d="M29539 43153 c-13 -16 -12 -17 4 -4 16 13 21 21 13 21 -2 0 -10 -8
-17 -17z"/>
<path d="M42229 43133 l-24 -28 28 24 c15 14 27 26 27 28 0 8 -8 1 -31 -24z"/>
<path d="M42815 43130 c10 -11 20 -20 23 -20 3 0 -3 9 -13 20 -10 11 -20 20
-23 20 -3 0 3 -9 13 -20z"/>
<path d="M42880 43075 c13 -14 26 -25 28 -25 3 0 -5 11 -18 25 -13 14 -26 25
-28 25 -3 0 5 -11 18 -25z"/>
<path d="M30215 43060 c10 -11 20 -20 23 -20 3 0 -3 9 -13 20 -10 11 -20 20
-23 20 -3 0 3 -9 13 -20z"/>
<path d="M42124 43048 l-19 -23 23 19 c12 11 22 21 22 23 0 8 -8 2 -26 -19z"/>
<path d="M42930 43036 c0 -2 8 -10 18 -17 15 -13 16 -12 3 4 -13 16 -21 21
-21 13z"/>
<path d="M42059 42993 l-24 -28 28 24 c15 14 27 26 27 28 0 8 -8 1 -31 -24z"/>
<path d="M42980 42996 c0 -2 8 -10 18 -17 15 -13 16 -12 3 4 -13 16 -21 21
-21 13z"/>
<path d="M41999 42933 l-24 -28 28 24 c15 14 27 26 27 28 0 8 -8 1 -31 -24z"/>
<path d="M30400 42905 c13 -14 26 -25 28 -25 3 0 -5 11 -18 25 -13 14 -26 25
-28 25 -3 0 5 -11 18 -25z"/>
<path d="M41939 42883 c-13 -16 -12 -17 4 -4 16 13 21 21 13 21 -2 0 -10 -8
-17 -17z"/>
<path d="M43125 42860 c10 -11 20 -20 23 -20 3 0 -3 9 -13 20 -10 11 -20 20
-23 20 -3 0 3 -9 13 -20z"/>
<path d="M41869 42823 l-34 -38 38 34 c20 19 37 36 37 38 0 8 -8 0 -41 -34z"/>
<path d="M29115 42778 l-50 -53 53 50 c48 46 57 55 49 55 -1 0 -25 -24 -52
-52z"/>
<path d="M43170 42826 c0 -2 8 -10 18 -17 15 -13 16 -12 3 4 -13 16 -21 21
-21 13z"/>
<path d="M30515 42790 c10 -11 20 -20 23 -20 3 0 -3 9 -13 20 -10 11 -20 20
-23 20 -3 0 3 -9 13 -20z"/>
<path d="M43480 42525 c135 -135 247 -245 250 -245 3 0 -105 110 -240 245
-135 135 -247 245 -250 245 -3 0 105 -110 240 -245z"/>
<path d="M29039 42703 c-13 -16 -12 -17 4 -4 9 7 17 15 17 17 0 8 -8 3 -21
-13z"/>
<path d="M41585 42550 c-82 -82 -147 -150 -145 -150 3 0 73 68 155 150 82 83
147 150 145 150 -3 0 -73 -67 -155 -150z"/>
<path d="M30640 42686 c0 -2 8 -10 18 -17 15 -13 16 -12 3 4 -13 16 -21 21
-21 13z"/>
<path d="M28804 42498 l-29 -33 33 29 c17 17 32 31 32 33 0 8 -8 1 -36 -29z"/>
<path d="M28645 42308 l-40 -43 43 40 c39 36 47 45 39 45 -2 0 -21 -19 -42
-42z"/>
<path d="M31255 42321 c-7 -12 -3 -71 5 -76 3 -2 6 17 7 41 1 45 -1 51 -12 35z"/>
<path d="M41334 42298 l-19 -23 23 19 c12 11 22 21 22 23 0 8 -8 2 -26 -19z"/>
<path d="M28335 42238 c-22 -29 -46 -65 -53 -82 -7 -16 -29 -52 -49 -80 -41
-57 -138 -240 -122 -230 5 3 21 30 34 60 23 53 155 247 184 272 11 10 12 11 2
6 -8 -4 -3 8 11 27 22 30 45 80 36 79 -2 -1 -21 -24 -43 -52z"/>
<path d="M41264 42218 l-19 -23 23 19 c12 11 22 21 22 23 0 8 -8 2 -26 -19z"/>
<path d="M28544 42208 l-19 -23 23 19 c21 18 27 26 19 26 -2 0 -12 -10 -23
-22z"/>
<path d="M31274 42221 c7 -11 46 -35 46 -28 0 3 -12 12 -26 22 -15 9 -23 12
-20 6z"/>
<path d="M31330 42201 c0 -5 11 -16 24 -24 26 -17 66 -95 66 -129 1 -20 2 -21
10 -7 12 20 -5 78 -28 97 -9 6 -13 12 -10 12 4 0 -7 14 -24 30 -31 32 -38 35
-38 21z"/>
<path d="M43800 42185 c13 -14 26 -25 28 -25 3 0 -5 11 -18 25 -13 14 -26 25
-28 25 -3 0 5 -11 18 -25z"/>
<path d="M41135 42068 l-40 -43 43 40 c39 36 47 45 39 45 -2 0 -21 -19 -42
-42z"/>
<path d="M43870 42107 c0 -2 15 -16 33 -33 l32 -29 -29 33 c-28 30 -36 37 -36
29z"/>
<path d="M28389 42033 c-13 -16 -12 -17 4 -4 16 13 21 21 13 21 -2 0 -10 -8
-17 -17z"/>
<path d="M31437 42023 c-5 -7 30 -58 138 -201 17 -22 36 -48 43 -58 7 -11 3
-1 -7 22 -11 22 -27 47 -36 54 -20 17 -99 126 -119 164 -8 15 -16 24 -19 19z"/>
<path d="M31500 42026 c0 -2 8 -10 18 -17 15 -13 16 -12 3 4 -13 16 -21 21
-21 13z"/>
<path d="M31290 41986 c0 -2 8 -10 18 -17 15 -13 16 -12 3 4 -13 16 -21 21
-21 13z"/>
<path d="M41044 41958 l-29 -33 33 29 c30 28 37 36 29 36 -2 0 -16 -15 -33
-32z"/>
<path d="M43970 41987 c0 -2 15 -16 33 -33 l32 -29 -29 33 c-28 30 -36 37 -36
29z"/>
<path d="M40782 41958 c-7 -7 -12 -16 -12 -20 0 -7 -92 -133 -123 -169 -25
-29 -45 -73 -66 -144 -20 -69 -45 -115 -126 -232 -53 -75 -189 -313 -183 -319
3 -2 40 55 83 128 43 73 104 169 135 213 32 44 79 122 105 174 26 51 69 119
95 151 54 64 83 116 100 179 12 47 10 57 -8 39z"/>
<path d="M44230 41955 c0 -25 60 -136 96 -180 102 -122 149 -190 193 -282 28
-56 74 -135 104 -175 55 -74 61 -84 117 -196 17 -35 52 -91 77 -125 25 -34 62
-96 82 -137 20 -41 59 -104 85 -140 27 -36 62 -94 79 -130 16 -36 48 -94 72
-130 24 -36 76 -132 116 -215 40 -82 88 -170 107 -194 18 -24 39 -59 47 -77 8
-19 16 -34 19 -34 10 0 -35 95 -55 116 -11 12 -63 106 -115 210 -53 104 -105
200 -118 214 -13 14 -33 49 -45 79 -27 64 -71 136 -129 213 -24 32 -45 65 -46
75 -6 27 -51 108 -84 151 -50 63 -99 147 -106 179 -9 38 -61 123 -76 123 -6 0
-8 4 -5 10 3 5 -3 15 -15 22 -11 7 -20 16 -20 21 0 4 -11 24 -25 45 -14 21
-38 76 -55 122 -16 47 -36 89 -44 95 -7 6 -16 22 -18 35 -1 14 -11 34 -20 44
-10 11 -18 26 -18 33 0 8 -18 33 -40 55 -22 23 -40 46 -40 51 0 5 -16 27 -35
48 -19 22 -35 46 -35 54 0 8 -9 19 -19 25 -26 14 -31 13 -31 -5z"/>
<path d="M31360 41906 c0 -2 8 -10 18 -17 15 -13 16 -12 3 4 -13 16 -21 21
-21 13z"/>
<path d="M40989 41893 c-13 -16 -12 -17 4 -4 16 13 21 21 13 21 -2 0 -10 -8
-17 -17z"/>
<path d="M44040 41906 c0 -2 8 -10 18 -17 15 -13 16 -12 3 4 -13 16 -21 21
-21 13z"/>
<path d="M28249 41863 c-13 -16 -12 -17 4 -4 9 7 17 15 17 17 0 8 -8 3 -21
-13z"/>
<path d="M44100 41835 c19 -19 36 -35 39 -35 3 0 -10 16 -29 35 -19 19 -36 35
-39 35 -3 0 10 -16 29 -35z"/>
<path d="M40939 41833 l-24 -28 28 24 c15 14 27 26 27 28 0 8 -8 1 -31 -24z"/>
<path d="M28045 41772 c-79 -102 -105 -138 -105 -147 0 -5 12 8 27 30 14 22
44 62 66 88 22 26 38 49 36 51 -2 2 -13 -8 -24 -22z"/>
<path d="M40889 41773 c-13 -16 -12 -17 4 -4 9 7 17 15 17 17 0 8 -8 3 -21
-13z"/>
<path d="M40859 41733 c-13 -16 -12 -17 4 -4 16 13 21 21 13 21 -2 0 -10 -8
-17 -17z"/>
<path d="M31639 41725 c6 -11 20 -31 31 -45 15 -17 18 -19 11 -5 -6 11 -20 31
-31 45 -15 17 -18 19 -11 5z"/>
<path d="M44200 41705 c13 -14 26 -25 28 -25 3 0 -5 11 -18 25 -13 14 -26 25
-28 25 -3 0 5 -11 18 -25z"/>
<path d="M40824 41688 l-19 -23 23 19 c12 11 22 21 22 23 0 8 -8 2 -26 -19z"/>
<path d="M31570 41636 c0 -2 8 -10 18 -17 15 -13 16 -12 3 4 -13 16 -21 21
-21 13z"/>
<path d="M44250 41636 c0 -2 8 -10 18 -17 15 -13 16 -12 3 4 -13 16 -21 21
-21 13z"/>
<path d="M40760 41600 c-12 -16 -19 -30 -16 -30 2 0 14 14 26 30 12 17 19 30
16 30 -2 0 -14 -13 -26 -30z"/>
<path d="M44280 41596 c0 -2 8 -10 18 -17 15 -13 16 -12 3 4 -13 16 -21 21
-21 13z"/>
<path d="M27890 41560 c-12 -16 -19 -30 -16 -30 2 0 14 14 26 30 12 17 19 30
16 30 -2 0 -14 -13 -26 -30z"/>
<path d="M31741 41555 c12 -22 26 -44 32 -50 15 -16 -20 48 -38 70 -9 11 -7 2
6 -20z"/>
<path d="M40709 41533 l-24 -28 28 24 c25 23 32 31 24 31 -2 0 -14 -12 -28
-27z"/>
<path d="M44330 41530 c12 -16 24 -30 26 -30 3 0 -4 14 -16 30 -12 17 -24 30
-26 30 -3 0 4 -13 16 -30z"/>
<path d="M40668 41483 c-23 -27 -119 -173 -114 -173 3 0 34 43 70 95 63 93 75
113 44 78z"/>
<path d="M31780 41486 c0 -2 7 -9 15 -16 13 -11 14 -10 9 4 -5 14 -24 23 -24
12z"/>
<path d="M44375 41470 c10 -11 20 -20 23 -20 3 0 -3 9 -13 20 -10 11 -20 20
-23 20 -3 0 3 -9 13 -20z"/>
<path d="M31819 41435 c5 -11 17 -29 26 -40 l16 -20 -10 20 c-5 11 -17 29 -26
40 l-16 20 10 -20z"/>
<path d="M44415 41420 c10 -11 20 -20 23 -20 3 0 -3 9 -13 20 -10 11 -20 20
-23 20 -3 0 3 -9 13 -20z"/>
<path d="M31860 41366 c0 -2 8 -10 18 -17 15 -13 16 -12 3 4 -13 16 -21 21
-21 13z"/>
<path d="M44470 41350 c6 -11 13 -20 16 -20 2 0 0 9 -6 20 -6 11 -13 20 -16
20 -2 0 0 -9 6 -20z"/>
<path d="M27766 41343 c-6 -14 -5 -15 5 -6 7 7 10 15 7 18 -3 3 -9 -2 -12 -12z"/>
<path d="M27849 41343 c-13 -16 -12 -17 4 -4 9 7 17 15 17 17 0 8 -8 3 -21
-13z"/>
<path d="M31800 41326 c0 -2 8 -10 18 -17 15 -13 16 -12 3 4 -13 16 -21 21
-21 13z"/>
<path d="M31890 41327 c0 -2 15 -16 33 -33 l32 -29 -29 33 c-28 30 -36 37 -36
29z"/>
<path d="M40529 41283 c-13 -16 -12 -17 4 -4 9 7 17 15 17 17 0 8 -8 3 -21
-13z"/>
<path d="M44527 41259 c10 -17 24 -36 32 -42 8 -7 2 7 -14 31 -32 49 -45 57
-18 11z"/>
<path d="M27700 41240 c-6 -11 -8 -20 -6 -20 3 0 10 9 16 20 6 11 8 20 6 20
-3 0 -10 -9 -16 -20z"/>
<path d="M40479 41213 c-13 -16 -12 -17 4 -4 9 7 17 15 17 17 0 8 -8 3 -21
-13z"/>
<path d="M27673 41198 c-15 -20 -25 -38 -20 -38 3 0 12 11 21 25 17 26 16 35
-1 13z"/>
<path d="M31986 41197 c3 -10 9 -15 12 -12 3 3 0 11 -7 18 -10 9 -11 8 -5 -6z"/>
<path d="M44590 41170 c12 -16 24 -30 26 -30 3 0 -4 14 -16 30 -12 17 -24 30
-26 30 -3 0 4 -13 16 -30z"/>
<path d="M40422 41133 c-26 -38 -34 -53 -29 -53 2 0 16 18 31 40 29 45 28 56
-2 13z"/>
<path d="M27625 41124 c-9 -15 -12 -23 -6 -20 11 7 35 46 28 46 -3 0 -12 -12
-22 -26z"/>
<path d="M32012 41125 c0 -11 3 -29 8 -40 11 -25 11 1 0 35 -6 20 -8 21 -8 5z"/>
<path d="M44676 41050 c45 -66 63 -87 40 -45 -10 17 -31 46 -48 65 -24 28 -23
24 8 -20z"/>
<path d="M32000 41074 c0 -6 7 -19 16 -30 14 -18 14 -18 3 6 -14 31 -19 36
-19 24z"/>
<path d="M27570 41040 c-6 -11 -8 -20 -6 -20 3 0 10 9 16 20 6 11 8 20 6 20
-3 0 -10 -9 -16 -20z"/>
<path d="M32075 41000 c63 -81 76 -86 18 -6 -27 36 -52 65 -56 66 -5 0 12 -27
38 -60z"/>
<path d="M40234 41028 c-9 -18 -23 -38 -31 -46 -18 -19 -46 -73 -39 -79 2 -3
12 10 21 28 10 18 33 54 51 81 19 26 30 48 24 48 -5 0 -17 -14 -26 -32z"/>
<path d="M40332 40998 c-36 -54 -44 -68 -39 -68 2 0 21 25 41 55 20 30 34 55
32 55 -3 0 -18 -19 -34 -42z"/>
<path d="M44920 41006 c0 -2 8 -10 18 -17 15 -13 16 -12 3 4 -13 16 -21 21
-21 13z"/>
<path d="M44755 40922 c16 -29 34 -57 42 -63 7 -6 -3 14 -22 46 -45 75 -56 84
-20 17z"/>
<path d="M32080 40920 c6 -11 13 -20 16 -20 2 0 0 9 -6 20 -6 11 -13 20 -16
20 -2 0 0 -9 6 -20z"/>
<path d="M27511 40914 c0 -6 -19 -35 -42 -65 -23 -30 -50 -72 -60 -94 -22 -46
-29 -58 -86 -137 -39 -55 -87 -161 -81 -179 5 -14 93 102 123 160 15 30 44 78
65 105 21 28 50 76 65 106 15 30 37 69 48 85 l21 30 -21 -18 c-21 -18 -21 -18
-26 0 -3 10 -5 13 -6 7z"/>
<path d="M32165 40885 c40 -56 51 -66 29 -27 -10 18 -28 41 -38 50 -12 10 -8
0 9 -23z"/>
<path d="M40270 40900 c-6 -11 -8 -20 -6 -20 3 0 10 9 16 20 6 11 8 20 6 20
-3 0 -10 -9 -16 -20z"/>
<path d="M32110 40870 c6 -11 13 -20 16 -20 2 0 0 9 -6 20 -6 11 -13 20 -16
20 -2 0 0 -9 6 -20z"/>
<path d="M40134 40864 c-22 -33 -39 -64 -93 -166 -24 -45 -60 -108 -79 -138
-19 -30 -43 -68 -52 -85 -65 -117 -89 -163 -95 -185 -3 -14 22 27 56 90 34 63
79 140 99 170 21 30 58 96 83 145 25 50 60 114 77 143 31 53 34 73 4 26z"/>
<path d="M40221 40830 c-17 -22 -28 -40 -24 -40 8 0 68 80 60 80 -2 0 -18 -18
-36 -40z"/>
<path d="M44852 40779 c65 -101 71 -109 41 -52 -15 28 -40 66 -56 85 -18 21
-12 9 15 -33z"/>
<path d="M32240 40770 c6 -11 13 -20 16 -20 2 0 0 9 -6 20 -6 11 -13 20 -16
20 -2 0 0 -9 6 -20z"/>
<path d="M40171 40753 c-10 -26 -10 -27 4 -9 8 11 15 23 15 28 0 15 -7 8 -19
-19z"/>
<path d="M32180 40756 c0 -2 8 -10 18 -17 15 -13 16 -12 3 4 -13 16 -21 21
-21 13z"/>
<path d="M32210 40716 c0 -2 8 -10 18 -17 15 -13 16 -12 3 4 -13 16 -21 21
-21 13z"/>
<path d="M32266 40707 c3 -10 9 -15 12 -12 3 3 0 11 -7 18 -10 9 -11 8 -5 -6z"/>
<path d="M40119 40673 c-13 -16 -12 -17 4 -4 16 13 21 21 13 21 -2 0 -10 -8
-17 -17z"/>
<path d="M32250 40665 c8 -11 25 -33 38 -50 14 -16 39 -60 58 -97 18 -38 44
-83 59 -100 14 -17 37 -53 51 -79 13 -27 29 -49 34 -49 20 0 5 45 -30 85 -9
11 -23 36 -30 55 -7 19 -29 57 -48 84 -20 26 -50 76 -68 110 -19 33 -34 52
-34 42 0 -19 0 -19 -22 0 -22 19 -23 19 -8 -1z"/>
<path d="M44940 40631 c11 -22 24 -42 29 -46 6 -3 -2 15 -15 40 -31 55 -42 60
-14 6z"/>
<path d="M40083 40623 c-9 -16 -22 -35 -27 -43 -9 -12 -8 -13 4 -3 17 13 54
73 46 73 -3 0 -13 -12 -23 -27z"/>
<path d="M45013 40523 c20 -28 48 -74 62 -102 14 -28 28 -51 30 -51 11 0 -66
137 -96 170 -30 34 -30 33 4 -17z"/>
<path d="M40028 40527 c-8 -17 -55 -95 -104 -172 -49 -77 -98 -158 -109 -180
-11 -22 -37 -66 -57 -98 -20 -31 -46 -78 -58 -105 -11 -26 -33 -63 -49 -82
-41 -52 -102 -168 -82 -155 6 3 23 30 37 58 15 29 37 67 51 85 13 18 36 58 50
90 15 31 29 59 32 62 12 10 62 91 71 114 5 13 29 56 54 95 25 39 46 73 46 76
0 3 25 43 55 90 61 95 88 145 83 151 -3 2 -11 -11 -20 -29z"/>
<path d="M45124 40340 c9 -14 24 -38 34 -54 9 -15 34 -56 55 -90 20 -33 55
-95 76 -137 22 -41 48 -82 58 -89 17 -14 17 -14 1 5 -9 11 -30 49 -47 85 -37
78 -125 222 -165 270 -16 19 -21 24 -12 10z"/>
<path d="M27160 40305 c0 -8 2 -15 4 -15 2 0 6 7 10 15 3 8 1 15 -4 15 -6 0
-10 -7 -10 -15z"/>
<path d="M27127 40273 c-4 -3 -7 -19 -7 -34 0 -18 -6 -28 -19 -32 -18 -4 -61
-73 -61 -97 0 -22 18 -8 36 28 10 20 25 41 32 45 11 7 52 79 52 92 0 7 -25 6
-33 -2z"/>
<path d="M39779 40223 c-13 -21 -26 -40 -30 -43 -3 -3 -17 -25 -29 -50 -12
-25 -30 -56 -40 -70 -32 -45 -191 -360 -182 -360 4 0 16 17 26 38 10 20 25 48
34 62 9 14 33 61 53 105 19 44 57 112 82 152 26 39 47 75 47 80 0 5 16 33 35
62 20 30 34 56 31 58 -2 2 -14 -13 -27 -34z"/>
<path d="M42483 40233 c9 -2 25 -2 35 0 9 3 1 5 -18 5 -19 0 -27 -2 -17 -5z"/>
<path d="M42354 40168 l-29 -33 33 29 c30 28 37 36 29 36 -2 0 -16 -15 -33
-32z"/>
<path d="M29910 40150 c0 -5 7 -10 16 -10 8 0 12 5 9 10 -3 6 -10 10 -16 10
-5 0 -9 -4 -9 -10z"/>
<path d="M29696 40116 c-30 -40 -32 -46 -11 -46 8 0 15 -7 15 -15 0 -8 7 -15
15 -15 8 0 15 -7 15 -16 0 -14 3 -14 15 -4 13 11 13 15 3 21 -8 5 -12 27 -11
59 0 27 -2 50 -7 50 -4 0 -19 -15 -34 -34z"/>
<path d="M29950 40120 c0 -5 5 -10 11 -10 5 0 7 5 4 10 -3 6 -8 10 -11 10 -2
0 -4 -4 -4 -10z"/>
<path d="M29770 40091 c0 -14 6 -17 24 -14 16 3 23 10 19 19 -8 21 -43 17 -43
-5z"/>
<path d="M29850 40101 c0 -5 8 -12 18 -15 10 -3 22 -19 28 -34 10 -25 15 -28
47 -24 29 3 37 1 37 -12 0 -9 8 -16 20 -16 13 0 20 7 20 20 0 13 -7 20 -20 20
-11 0 -20 7 -20 15 0 10 -11 15 -35 15 -28 0 -35 4 -35 20 0 16 -7 20 -30 20
-16 0 -30 -4 -30 -9z"/>
<path d="M42289 40083 c-13 -16 -12 -17 4 -4 16 13 21 21 13 21 -2 0 -10 -8
-17 -17z"/>
<path d="M29618 40015 c-10 -13 -18 -29 -18 -34 0 -17 105 -14 120 4 11 13 8
15 -19 15 -24 0 -31 4 -31 20 0 28 -31 25 -52 -5z"/>
<path d="M42209 39973 c-13 -16 -12 -17 4 -4 9 7 17 15 17 17 0 8 -8 3 -21
-13z"/>
<path d="M30050 39955 c0 -18 5 -25 20 -25 20 0 20 1 4 25 -9 14 -18 25 -20
25 -2 0 -4 -11 -4 -25z"/>
<path d="M29960 39950 c6 -11 15 -20 20 -20 6 0 10 9 10 20 0 13 -7 20 -20 20
-18 0 -19 -3 -10 -20z"/>
<path d="M45361 39945 c0 -18 28 -61 29 -44 0 8 -7 24 -15 35 -8 10 -14 15
-14 9z"/>
<path d="M32700 39921 c0 -5 9 -19 20 -32 l21 -24 -16 33 c-15 31 -25 41 -25
23z"/>
<path d="M29546 39912 c-4 -7 -2 -12 3 -12 6 0 11 -16 11 -35 0 -28 4 -35 20
-35 16 0 20 7 20 35 0 28 -4 35 -19 35 -11 0 -21 5 -23 12 -3 9 -6 9 -12 0z"/>
<path d="M42159 39903 c-13 -16 -12 -17 4 -4 16 13 21 21 13 21 -2 0 -10 -8
-17 -17z"/>
<path d="M29630 39884 c0 -17 22 -14 28 4 2 7 -3 12 -12 12 -9 0 -16 -7 -16
-16z"/>
<path d="M30090 39880 c0 -13 7 -20 20 -20 23 0 26 10 8 28 -18 18 -28 15 -28
-8z"/>
<path d="M30060 39811 c0 -17 6 -21 35 -21 24 0 35 5 35 15 0 8 -6 15 -12 15
-7 0 -23 3 -35 6 -19 5 -23 2 -23 -15z"/>
<path d="M29478 39808 c-4 -10 -3 -18 2 -18 6 0 10 -9 10 -20 0 -13 -7 -20
-20 -20 -11 0 -20 -7 -20 -15 0 -8 9 -15 20 -15 11 0 20 7 20 15 0 8 9 15 20
15 13 0 20 7 20 20 0 13 -7 20 -19 20 -11 0 -21 8 -23 18 -3 16 -4 16 -10 0z"/>
<path d="M45451 39780 c14 -31 19 -36 19 -24 0 6 -7 19 -16 30 -14 18 -14 18
-3 -6z"/>
<path d="M30160 39770 c0 -15 7 -20 25 -20 23 0 24 2 15 20 -6 11 -17 20 -25
20 -8 0 -15 -9 -15 -20z"/>
<path d="M30102 39734 c6 -13 15 -21 19 -18 16 9 9 32 -10 37 -17 4 -18 2 -9
-19z"/>
<path d="M45506 39683 c39 -63 54 -82 54 -69 0 13 -74 125 -83 125 -4 1 9 -25
29 -56z"/>
<path d="M30160 39700 c0 -13 7 -20 20 -20 13 0 20 7 20 20 0 13 -7 20 -20 20
-13 0 -20 -7 -20 -20z"/>
<path d="M39537 39693 c-11 -13 -17 -27 -14 -30 3 -2 13 7 23 21 22 34 15 42
-9 9z"/>
<path d="M45550 39707 c0 -14 24 -57 32 -57 5 0 1 12 -9 28 -22 35 -23 36 -23
29z"/>
<path d="M43020 39680 c6 -11 13 -20 16 -20 2 0 0 9 -6 20 -6 11 -13 20 -16
20 -2 0 0 -9 6 -20z"/>
<path d="M29392 39670 c-11 -18 -10 -20 8 -20 13 0 20 7 20 20 0 11 -3 20 -8
20 -4 0 -13 -9 -20 -20z"/>
<path d="M30230 39665 c0 -8 -6 -15 -14 -15 -19 0 -24 -37 -12 -75 5 -16 31
-58 58 -91 26 -34 48 -67 48 -73 0 -6 14 -11 30 -11 20 0 30 -5 30 -15 0 -8 9
-15 20 -15 11 0 20 7 20 15 0 8 5 15 10 15 6 0 0 16 -12 35 -25 37 -38 44 -38
20 0 -10 -11 -15 -35 -15 -24 0 -35 5 -35 15 0 8 9 15 20 15 16 0 20 7 20 38
0 46 -13 67 -42 68 -61 2 -68 4 -68 24 0 15 7 20 25 20 29 0 31 7 9 38 -17 25
-34 29 -34 7z"/>
<path d="M39425 39610 c-10 -11 -14 -20 -9 -20 5 0 15 9 22 20 7 11 11 20 9
20 -2 0 -12 -9 -22 -20z"/>
<path d="M45615 39587 c3 -10 5 -24 5 -30 1 -16 60 -84 60 -69 0 7 -8 20 -17
30 -10 10 -26 33 -36 52 -10 19 -15 27 -12 17z"/>
<path d="M29420 39565 c0 -8 4 -15 9 -15 5 0 11 7 15 15 3 9 0 15 -9 15 -8 0
-15 -7 -15 -15z"/>
<path d="M39470 39560 c-6 -11 -8 -20 -6 -20 3 0 10 9 16 20 6 11 8 20 6 20
-3 0 -10 -9 -16 -20z"/>
<path d="M29306 39533 c-9 -22 -8 -23 19 -23 15 0 25 6 25 14 0 19 -37 27 -44
9z"/>
<path d="M45590 39535 c0 -5 9 -23 20 -40 26 -39 26 -25 0 17 -11 18 -20 29
-20 23z"/>
<path d="M43120 39516 c0 -2 8 -10 18 -17 15 -13 16 -12 3 4 -13 16 -21 21
-21 13z"/>
<path d="M39376 39501 c-4 -7 -5 -15 -2 -18 9 -9 19 4 14 18 -4 11 -6 11 -12
0z"/>
<path d="M29310 39455 c0 -8 -7 -15 -15 -15 -8 0 -15 -9 -15 -20 0 -11 -7 -20
-15 -20 -8 0 -15 -9 -15 -20 0 -11 7 -20 15 -20 8 0 15 -7 15 -15 0 -23 18
-18 26 8 4 12 10 24 13 27 9 7 51 76 51 84 0 3 -13 6 -30 6 -20 0 -30 -5 -30
-15z"/>
<path d="M45695 39438 c20 -50 45 -94 45 -83 0 16 -44 115 -52 115 -4 0 -1
-15 7 -32z"/>
<path d="M29192 39350 c-10 -17 -10 -20 3 -20 8 0 15 9 15 20 0 11 -1 20 -3
20 -1 0 -8 -9 -15 -20z"/>
<path d="M45690 39346 c0 -2 8 -10 18 -17 15 -13 16 -12 3 4 -13 16 -21 21
-21 13z"/>
<path d="M30440 39316 c0 -11 -9 -16 -26 -16 -20 0 -25 -4 -20 -16 3 -9 6 -18
6 -20 0 -2 9 -4 20 -4 13 0 20 -7 20 -20 0 -14 7 -20 21 -20 18 0 20 5 17 52
-2 41 -7 54 -20 56 -11 2 -18 -3 -18 -12z"/>
<path d="M29170 39275 c0 -8 7 -15 15 -15 8 0 15 -9 15 -20 0 -11 -7 -20 -15
-20 -8 0 -15 -7 -15 -15 0 -26 35 -16 53 14 21 36 21 41 2 41 -8 0 -15 7 -15
15 0 8 -9 15 -20 15 -11 0 -20 -7 -20 -15z"/>
<path d="M41769 39273 c-13 -16 -12 -17 4 -4 16 13 21 21 13 21 -2 0 -10 -8
-17 -17z"/>
<path d="M29077 39153 c-4 -3 -7 -13 -7 -20 0 -23 94 -13 98 10 3 14 -4 17
-41 17 -24 0 -47 -3 -50 -7z"/>
<path d="M30510 39140 c0 -13 7 -20 20 -20 13 0 20 -7 20 -20 0 -16 7 -20 31
-20 24 0 30 3 25 16 -3 9 -6 18 -6 20 0 2 -11 4 -25 4 -18 0 -25 5 -25 20 0
13 -7 20 -20 20 -13 0 -20 -7 -20 -20z"/>
<path d="M29037 39084 c-12 -13 -7 -34 8 -34 8 0 15 -9 15 -20 0 -11 -7 -20
-15 -20 -8 0 -15 -7 -15 -15 0 -8 7 -15 15 -15 8 0 15 -8 15 -17 0 -16 1 -16
16 -1 9 9 19 39 22 67 4 41 2 51 -11 51 -8 0 -22 2 -29 5 -8 3 -17 2 -21 -1z"/>
<path d="M43400 39051 c0 -6 4 -13 10 -16 6 -3 7 1 4 9 -7 18 -14 21 -14 7z"/>
<path d="M30550 39030 c0 -13 7 -20 20 -20 13 0 20 7 20 20 0 13 -7 20 -20 20
-13 0 -20 -7 -20 -20z"/>
<path d="M30650 38990 c0 -11 7 -20 15 -20 13 0 14 4 5 20 -6 11 -13 20 -15
20 -3 0 -5 -9 -5 -20z"/>
<path d="M28962 38960 c-11 -18 -10 -20 8 -20 13 0 20 7 20 20 0 11 -3 20 -8
20 -4 0 -13 -9 -20 -20z"/>
<path d="M28996 38918 c-14 -54 -3 -61 38 -23 34 31 33 45 -3 45 -21 0 -30 -6
-35 -22z"/>
<path d="M30713 38872 c-13 -2 -23 -10 -23 -18 0 -8 -7 -14 -15 -14 -8 0 -15
7 -15 15 0 8 -7 15 -17 15 -15 0 -15 -2 0 -17 8 -10 19 -30 22 -46 4 -15 13
-31 19 -35 7 -4 25 -29 41 -57 16 -27 30 -44 33 -37 2 6 12 12 23 12 12 0 19
7 19 20 0 16 -7 20 -35 20 -28 0 -35 4 -35 20 0 11 7 20 15 20 8 0 15 6 15 14
0 8 4 16 10 18 5 2 0 19 -13 38 -16 27 -28 35 -44 32z"/>
<path d="M28899 38849 c-10 -20 -9 -21 12 -16 13 4 30 7 37 7 6 0 12 7 12 15
0 24 -47 19 -61 -6z"/>
<path d="M28920 38785 c0 -10 -11 -15 -35 -15 -28 0 -35 -4 -35 -20 0 -17 7
-20 49 -20 42 0 49 3 55 23 10 37 7 47 -14 47 -11 0 -20 -7 -20 -15z"/>
<path d="M30830 38683 c0 -13 5 -23 10 -23 13 0 13 11 0 30 -8 12 -10 11 -10
-7z"/>
<path d="M28786 38644 c-9 -24 -9 -24 29 -24 24 0 35 -5 35 -15 0 -10 -11 -15
-35 -15 -28 0 -35 -4 -35 -20 0 -13 7 -20 20 -20 11 0 20 -7 20 -15 0 -29 19
-14 26 20 3 19 12 39 20 46 18 15 18 29 -1 29 -8 0 -15 7 -15 15 0 21 -56 20
-64 -1z"/>
<path d="M30767 38640 c3 -11 9 -20 14 -20 5 0 9 -7 9 -15 0 -8 9 -15 20 -15
13 0 20 -7 20 -20 0 -13 7 -20 20 -20 13 0 20 7 20 20 0 13 -7 20 -20 20 -13
0 -20 7 -20 20 0 11 -7 20 -15 20 -8 0 -15 7 -15 15 0 8 -9 15 -19 15 -14 0
-18 -5 -14 -20z"/>
<path d="M28710 38486 c0 -31 3 -34 34 -38 29 -3 37 1 50 23 20 34 20 39 1 39
-8 0 -15 -7 -15 -15 0 -8 -7 -15 -15 -15 -8 0 -15 9 -15 20 0 13 -7 20 -20 20
-16 0 -20 -7 -20 -34z"/>
<path d="M30940 38460 c0 -11 7 -20 15 -20 17 0 18 2 9 24 -9 23 -24 20 -24
-4z"/>
<path d="M28710 38390 c0 -24 25 -27 34 -4 9 23 8 24 -14 24 -13 0 -20 -7 -20
-20z"/>
<path d="M30916 38353 c8 -36 18 -46 45 -48 18 -2 20 2 15 28 -3 16 -6 33 -6
38 0 5 -14 9 -30 9 -28 0 -30 -2 -24 -27z"/>
<path d="M31010 38355 c0 -8 4 -15 10 -15 5 0 7 7 4 15 -4 8 -8 15 -10 15 -2
0 -4 -7 -4 -15z"/>
<path d="M28640 38320 c0 -13 7 -20 20 -20 13 0 20 7 20 20 0 13 -7 20 -20 20
-13 0 -20 -7 -20 -20z"/>
<path d="M31040 38290 c0 -11 7 -20 15 -20 13 0 14 4 5 20 -6 11 -13 20 -15
20 -3 0 -5 -9 -5 -20z"/>
<path d="M43820 38286 c0 -2 8 -10 18 -17 15 -13 16 -12 3 4 -13 16 -21 21
-21 13z"/>
<path d="M28577 38263 c-14 -13 -6 -33 13 -33 13 0 20 7 20 20 0 19 -20 27
-33 13z"/>
<path d="M28680 38259 c0 -5 5 -7 10 -4 6 3 10 8 10 11 0 2 -4 4 -10 4 -5 0
-10 -5 -10 -11z"/>
<path d="M31080 38222 c0 -15 -6 -22 -20 -22 -13 0 -20 -7 -20 -20 0 -13 7
-20 20 -20 11 0 20 -7 20 -15 0 -8 9 -15 20 -15 13 0 20 7 20 19 0 14 -5 18
-20 14 -15 -4 -20 0 -20 15 0 11 6 22 14 24 13 3 13 6 0 22 -14 19 -14 19 -14
-2z"/>
<path d="M28600 38145 c0 -8 -7 -15 -15 -15 -8 0 -15 -9 -15 -20 0 -11 -6 -20
-14 -20 -8 0 -17 -13 -21 -30 -4 -16 -13 -30 -21 -30 -8 0 -14 -9 -14 -20 0
-16 -7 -20 -35 -20 -27 0 -35 -4 -35 -18 0 -9 -9 -23 -20 -30 -11 -7 -20 -17
-20 -22 0 -6 9 -10 20 -10 16 0 20 -7 20 -30 0 -16 3 -30 8 -30 25 1 75 76
107 163 10 26 26 52 37 58 10 5 18 19 18 31 0 12 7 30 17 40 15 17 15 18 0 18
-10 0 -17 -7 -17 -15z"/>
<path d="M28480 38080 c-9 -16 -8 -20 5 -20 8 0 15 9 15 20 0 11 -2 20 -5 20
-2 0 -9 -9 -15 -20z"/>
<path d="M31069 38082 c13 -25 41 -29 41 -7 0 8 -4 15 -9 15 -5 0 -17 3 -26 7
-15 5 -16 3 -6 -15z"/>
<path d="M31180 38048 c0 -9 5 -20 10 -23 13 -8 13 5 0 25 -8 13 -10 13 -10
-2z"/>
<path d="M31150 37970 c0 -13 7 -20 20 -20 13 0 20 7 20 20 0 13 -7 20 -20 20
-13 0 -20 -7 -20 -20z"/>
<path d="M31170 37900 c6 -11 20 -20 30 -20 13 0 20 7 20 20 0 16 -7 20 -30
20 -28 0 -30 -2 -20 -20z"/>
<path d="M31256 37858 c-10 -38 -7 -48 14 -48 13 0 20 -7 20 -20 0 -13 -7 -20
-20 -20 -21 0 -26 -19 -11 -48 5 -9 14 -28 19 -42 9 -21 11 -17 11 33 1 50 3
57 21 57 16 0 20 -7 20 -30 0 -20 5 -30 15 -30 19 0 19 1 -7 55 -12 25 -28 45
-34 45 -7 0 -14 14 -16 32 -4 38 -23 48 -32 16z"/>
<path d="M28347 37836 c-4 -10 -5 -21 -2 -24 9 -9 17 6 13 25 -3 17 -4 17 -11
-1z"/>
<path d="M46650 37846 c0 -2 8 -10 18 -17 15 -13 16 -12 3 4 -13 16 -21 21
-21 13z"/>
<path d="M38527 37793 c-4 -3 -7 -13 -7 -22 1 -13 3 -13 11 2 11 19 8 33 -4
20z"/>
<path d="M28286 37711 c-20 -39 -36 -79 -36 -90 0 -10 -7 -21 -15 -25 -30 -11
-17 -36 20 -36 33 0 35 2 35 35 0 23 5 35 14 35 9 0 15 20 19 73 3 39 3 74 2
76 -2 1 -20 -29 -39 -68z"/>
<path d="M28360 37720 c0 -11 7 -20 15 -20 8 0 15 9 15 20 0 11 -7 20 -15 20
-8 0 -15 -9 -15 -20z"/>
<path d="M43981 37674 c0 -11 3 -14 6 -6 3 7 2 16 -1 19 -3 4 -6 -2 -5 -13z"/>
<path d="M31328 37635 c-3 -29 -1 -35 14 -35 11 0 18 -7 18 -20 0 -13 7 -20
20 -20 16 0 20 -7 20 -30 0 -36 25 -41 34 -7 10 37 7 45 -14 40 -15 -4 -20 0
-20 16 0 11 4 21 10 21 5 0 2 16 -7 35 -13 27 -23 35 -44 35 -23 0 -27 -5 -31
-35z"/>
<path d="M40869 37633 c-13 -16 -12 -17 4 -4 16 13 21 21 13 21 -2 0 -10 -8
-17 -17z"/>
<path d="M28186 37514 c-9 -23 -8 -24 14 -24 13 0 20 7 20 20 0 24 -25 27 -34
4z"/>
<path d="M31470 37462 c0 -31 4 -42 15 -42 19 0 19 39 0 64 -14 18 -15 17 -15
-22z"/>
<path d="M28140 37420 c-12 -24 -16 -40 -9 -40 6 0 13 9 16 20 3 11 12 20 19
20 8 0 14 9 14 20 0 32 -18 23 -40 -20z"/>
<path d="M31400 37447 c0 -8 10 -22 22 -33 20 -18 21 -18 15 -1 -4 10 -7 25
-7 33 0 8 -7 14 -15 14 -8 0 -15 -6 -15 -13z"/>
<path d="M28180 37353 l0 -38 20 33 c25 40 25 42 0 42 -16 0 -20 -7 -20 -37z"/>
<path d="M31440 37385 c0 -3 9 -22 20 -42 11 -21 20 -45 20 -53 0 -9 9 -23 20
-33 11 -9 20 -24 20 -32 0 -9 9 -15 25 -15 18 0 25 -5 25 -20 0 -16 7 -20 35
-20 33 0 35 2 25 20 -6 12 -21 20 -35 20 -18 0 -25 5 -25 20 0 11 -7 20 -15
20 -10 0 -15 10 -15 30 0 21 5 30 16 30 11 0 14 5 10 16 -3 9 -6 18 -6 20 0 2
-13 4 -30 4 -19 0 -30 5 -30 14 0 7 -10 16 -22 20 -28 7 -38 7 -38 1z"/>
<path d="M28097 37335 c-5 -12 -4 -21 2 -23 6 -2 11 -17 11 -33 0 -25 -4 -29
-29 -29 -24 0 -41 -14 -41 -36 0 -2 21 -4 48 -4 44 1 48 3 63 35 9 19 13 35 8
35 -5 0 -9 9 -9 20 0 13 -7 20 -19 20 -11 0 -21 8 -23 18 -3 15 -4 15 -11 -3z"/>
<path d="M40685 37279 c-4 -6 -5 -12 -2 -15 2 -3 7 2 10 11 7 17 1 20 -8 4z"/>
<path d="M27992 37125 c-26 -54 -26 -55 -7 -55 8 0 15 -9 15 -20 0 -32 37 -25
60 13 26 43 26 77 0 77 -11 0 -20 7 -20 15 0 30 -27 14 -48 -30z"/>
<path d="M44422 37125 c12 -24 23 -43 26 -41 4 5 -36 86 -43 86 -3 0 5 -20 17
-45z"/>
<path d="M31650 37115 c0 -8 4 -15 10 -15 5 0 7 7 4 15 -4 8 -8 15 -10 15 -2
0 -4 -7 -4 -15z"/>
<path d="M31680 37053 c0 -13 5 -23 10 -23 13 0 13 11 0 30 -8 12 -10 11 -10
-7z"/>
<path d="M31623 36995 c8 -27 16 -35 34 -35 16 0 23 6 23 20 0 11 -7 20 -15
20 -8 0 -15 7 -15 15 0 8 -9 15 -19 15 -17 0 -18 -3 -8 -35z"/>
<path d="M27930 36980 c0 -13 7 -20 20 -20 17 0 20 -7 21 -42 1 -43 1 -43 11
-13 6 17 15 36 21 43 7 9 4 12 -12 12 -14 0 -21 6 -21 20 0 13 -7 20 -20 20
-13 0 -20 -7 -20 -20z"/>
<path d="M31720 36963 c0 -27 -4 -33 -21 -33 -20 0 -21 -4 -14 -47 8 -57 19
-73 45 -66 25 7 29 73 5 73 -8 0 -15 9 -15 20 0 11 7 20 15 20 18 0 18 8 0 40
l-14 25 -1 -32z"/>
<path d="M27867 36875 l-27 -55 30 0 c30 0 30 1 30 55 0 30 -1 55 -3 55 -2 0
-15 -25 -30 -55z"/>
<path d="M44546 36877 c3 -10 9 -15 12 -12 3 3 0 11 -7 18 -10 9 -11 8 -5 -6z"/>
<path d="M27815 36772 c-3 -9 -1 -18 4 -20 19 -6 12 -32 -8 -32 -16 0 -31 -18
-31 -36 0 -2 18 -4 39 -4 33 0 40 4 45 25 4 14 4 36 0 49 -7 29 -40 41 -49 18z"/>
<path d="M31774 36698 c9 -12 16 -30 16 -40 0 -13 8 -18 30 -18 23 0 30 4 30
20 0 16 -7 20 -30 20 -23 0 -30 4 -30 20 0 11 -7 20 -16 20 -14 0 -14 -2 0
-22z"/>
<path d="M27749 36625 c-4 -11 -10 -28 -14 -37 -5 -13 -2 -18 9 -18 9 0 16 -7
16 -15 0 -8 7 -15 15 -15 8 0 15 9 15 20 0 11 -6 20 -14 20 -9 0 -16 12 -18
33 -2 25 -4 28 -9 12z"/>
<path d="M31835 36558 c4 -13 14 -30 22 -38 14 -13 15 -13 7 0 -5 8 -7 25 -5
38 2 15 -3 22 -14 22 -12 0 -15 -6 -10 -22z"/>
<path d="M31890 36560 c0 -13 7 -20 20 -20 13 0 20 7 20 20 0 13 -7 20 -20 20
-13 0 -20 -7 -20 -20z"/>
<path d="M40326 36515 c-9 -26 -7 -32 5 -12 6 10 9 21 6 23 -2 3 -7 -2 -11
-11z"/>
<path d="M31930 36490 c0 -14 7 -20 21 -20 15 0 19 4 15 16 -3 9 -6 18 -6 20
0 2 -7 4 -15 4 -8 0 -15 -9 -15 -20z"/>
<path d="M27760 36485 c0 -8 -9 -15 -20 -15 -11 0 -20 -7 -20 -15 0 -8 -7 -15
-15 -15 -8 0 -15 -9 -15 -20 0 -13 7 -20 20 -20 11 0 20 6 20 13 0 7 10 17 22
22 26 12 44 65 22 65 -8 0 -14 -7 -14 -15z"/>
<path d="M31870 36493 c0 -5 5 -15 10 -23 8 -12 10 -11 10 8 0 12 -4 22 -10
22 -5 0 -10 -3 -10 -7z"/>
<path d="M31960 36415 c0 -8 -7 -15 -15 -15 -9 0 -15 -9 -15 -23 0 -20 4 -23
34 -19 34 4 49 28 38 60 -5 17 -42 15 -42 -3z"/>
<path d="M44780 36385 c0 -5 5 -17 10 -25 5 -8 10 -10 10 -5 0 6 -5 17 -10 25
-5 8 -10 11 -10 5z"/>
<path d="M27650 36324 c0 -28 3 -35 18 -32 11 2 18 14 20 36 3 27 0 32 -17 32
-17 0 -21 -6 -21 -36z"/>
<path d="M32001 36273 c0 -32 4 -67 9 -78 9 -19 9 -19 16 3 3 12 14 22 25 22
12 0 19 7 19 20 0 11 -7 20 -15 20 -8 0 -17 14 -21 35 -3 20 -12 35 -20 35
-10 0 -14 -15 -13 -57z"/>
<path d="M44816 36297 c3 -10 9 -15 12 -12 3 3 0 11 -7 18 -10 9 -11 8 -5 -6z"/>
<path d="M27587 36270 c-4 -15 0 -20 14 -20 12 0 19 7 19 20 0 11 -6 20 -14
20 -7 0 -16 -9 -19 -20z"/>
<path d="M27547 36185 c-9 -19 -12 -35 -7 -35 6 0 10 7 10 15 0 8 7 15 15 15
8 0 15 9 15 20 0 30 -14 24 -33 -15z"/>
<path d="M27620 36205 c0 -8 7 -15 15 -15 8 0 15 7 15 15 0 8 -7 15 -15 15 -8
0 -15 -7 -15 -15z"/>
<path d="M32101 36173 c-1 -14 -7 -23 -16 -23 -8 0 -15 -7 -15 -15 0 -8 -7
-15 -16 -15 -32 0 6 -78 39 -80 4 0 7 15 7 34 0 19 4 45 9 58 4 13 5 32 0 43
-7 19 -8 19 -8 -2z"/>
<path d="M37625 36150 c-3 -6 1 -7 9 -4 18 7 21 14 7 14 -6 0 -13 -4 -16 -10z"/>
<path d="M27507 36082 c1 -8 3 -27 3 -43 0 -22 5 -29 20 -29 16 0 20 7 20 35
0 28 -4 35 -19 35 -11 0 -21 3 -24 8 -2 4 -2 1 0 -6z"/>
<path d="M32140 36060 c0 -11 7 -20 15 -20 13 0 14 4 5 20 -6 11 -13 20 -15
20 -3 0 -5 -9 -5 -20z"/>
<path d="M40115 36059 c-4 -6 -5 -12 -2 -15 2 -3 7 2 10 11 7 17 1 20 -8 4z"/>
<path d="M32170 35995 c0 -8 -7 -15 -15 -15 -8 0 -15 -9 -15 -20 0 -16 7 -20
36 -20 31 0 35 3 29 18 -4 9 -10 25 -12 35 -6 21 -23 23 -23 2z"/>
<path d="M47491 35934 c0 -11 3 -14 6 -6 3 7 2 16 -1 19 -3 4 -6 -2 -5 -13z"/>
<path d="M27510 35919 c0 -18 -4 -20 -32 -14 -18 4 -36 12 -39 17 -3 5 -9 3
-12 -6 -4 -9 -2 -16 3 -16 6 0 10 -7 10 -15 0 -8 9 -15 20 -15 11 0 20 -6 20
-12 0 -7 11 1 25 17 25 31 33 65 15 65 -5 0 -10 -9 -10 -21z"/>
<path d="M44996 35897 c3 -10 9 -15 12 -12 3 3 0 11 -7 18 -10 9 -11 8 -5 -6z"/>
<path d="M32146 35885 c4 -8 10 -15 15 -15 5 0 9 7 9 15 0 8 -7 15 -15 15 -9
0 -12 -6 -9 -15z"/>
<path d="M40199 35863 c-13 -16 -12 -17 4 -4 16 13 21 21 13 21 -2 0 -10 -8
-17 -17z"/>
<path d="M45030 35811 c0 -6 4 -13 10 -16 6 -3 7 1 4 9 -7 18 -14 21 -14 7z"/>
<path d="M32185 35769 c4 -17 19 -50 35 -73 15 -22 33 -57 39 -77 9 -29 16
-36 31 -32 11 3 20 12 20 19 0 8 9 14 19 14 14 0 18 5 14 20 -3 11 -9 20 -13
20 -4 0 -10 14 -13 30 -4 19 -13 30 -23 30 -12 0 -15 7 -12 23 4 20 1 23 -19
19 -18 -3 -23 0 -23 17 0 17 -6 21 -31 21 -29 0 -30 -2 -24 -31z"/>
<path d="M39985 35759 c-4 -6 -5 -12 -2 -15 2 -3 7 2 10 11 7 17 1 20 -8 4z"/>
<path d="M27370 35725 c0 -24 5 -35 15 -35 8 0 15 -7 15 -15 0 -18 16 -20 26
-3 4 6 2 14 -4 16 -7 2 -12 19 -12 38 0 27 -4 34 -20 34 -16 0 -20 -7 -20 -35z"/>
<path d="M37930 35745 c0 -5 5 -17 10 -25 5 -8 10 -10 10 -5 0 6 -5 17 -10 25
-5 8 -10 11 -10 5z"/>
<path d="M27330 35640 c0 -13 7 -20 20 -20 13 0 20 7 20 20 0 13 -7 20 -20 20
-13 0 -20 -7 -20 -20z"/>
<path d="M32350 35595 c0 -8 4 -15 10 -15 5 0 7 7 4 15 -4 8 -8 15 -10 15 -2
0 -4 -7 -4 -15z"/>
<path d="M45146 35547 c3 -10 9 -15 12 -12 3 3 0 11 -7 18 -10 9 -11 8 -5 -6z"/>
<path d="M32290 35525 c0 -14 8 -29 19 -35 11 -5 23 -24 27 -42 4 -18 9 -27
11 -20 3 6 20 12 40 12 27 0 34 4 31 18 -2 11 -14 18 -36 20 -20 2 -32 9 -32
18 0 8 -7 14 -15 14 -8 0 -15 9 -15 20 0 11 -7 20 -15 20 -9 0 -15 -9 -15 -25z"/>
<path d="M38020 35491 c0 -6 4 -13 10 -16 6 -3 7 1 4 9 -7 18 -14 21 -14 7z"/>
<path d="M45170 35486 c0 -8 4 -17 9 -20 5 -4 7 3 4 14 -6 23 -13 26 -13 6z"/>
<path d="M27230 35430 c0 -11 -4 -20 -8 -20 -9 0 -32 -44 -32 -60 0 -6 9 -10
20 -10 16 0 20 7 20 35 0 28 4 35 20 35 13 0 20 -7 20 -20 0 -11 2 -20 5 -20
3 0 15 9 27 20 l22 20 -27 0 c-20 0 -27 5 -27 20 0 13 -7 20 -20 20 -13 0 -20
-7 -20 -20z"/>
<path d="M32420 35375 c0 -24 -5 -35 -15 -35 -8 0 -15 7 -15 15 0 8 -7 15 -15
15 -8 0 -15 -4 -15 -9 0 -5 7 -14 15 -21 8 -7 15 -19 15 -27 0 -11 7 -14 23
-9 12 3 25 6 29 6 13 0 19 59 8 79 -16 32 -30 25 -30 -14z"/>
<path d="M45230 35345 c0 -5 5 -17 10 -25 5 -8 10 -10 10 -5 0 6 -5 17 -10 25
-5 8 -10 11 -10 5z"/>
<path d="M27147 35250 c-3 -11 -1 -20 4 -20 5 0 9 9 9 20 0 11 -2 20 -4 20 -2
0 -6 -9 -9 -20z"/>
<path d="M32420 35261 c0 -9 16 -61 32 -103 11 -30 38 -38 38 -13 0 9 10 15
26 15 20 0 25 4 20 16 -3 9 -6 18 -6 20 0 2 -7 4 -15 4 -8 0 -15 7 -15 15 0 8
-9 15 -20 15 -13 0 -20 7 -20 20 0 13 -7 20 -20 20 -11 0 -20 -4 -20 -9z"/>
<path d="M27160 35165 c0 -41 20 -47 44 -13 24 34 20 48 -14 48 -28 0 -30 -3
-30 -35z"/>
<path d="M32530 35110 c0 -14 7 -20 21 -20 15 0 19 4 15 16 -3 9 -6 18 -6 20
0 2 -7 4 -15 4 -8 0 -15 -9 -15 -20z"/>
<path d="M27120 35070 c0 -13 7 -20 20 -20 13 0 20 7 20 20 0 13 -7 20 -20 20
-13 0 -20 -7 -20 -20z"/>
<path d="M32500 35040 c0 -17 7 -20 49 -20 44 0 49 2 44 20 -4 16 -14 20 -49
20 -37 0 -44 -3 -44 -20z"/>
<path d="M27090 34985 c0 -24 5 -35 15 -35 10 0 15 11 15 35 0 24 -5 35 -15
35 -10 0 -15 -11 -15 -35z"/>
<path d="M32600 34965 c0 -8 7 -15 15 -15 9 0 12 6 9 15 -4 8 -10 15 -15 15
-5 0 -9 -7 -9 -15z"/>
<path d="M32630 34921 c0 -8 -11 -10 -34 -6 -36 7 -50 -3 -40 -28 3 -9 13 -13
25 -10 14 4 19 0 19 -16 0 -41 28 -23 32 22 3 23 3 44 1 46 -1 2 -3 -1 -3 -8z"/>
<path d="M27090 34900 c0 -5 5 -10 10 -10 6 0 10 5 10 10 0 6 -4 10 -10 10 -5
0 -10 -4 -10 -10z"/>
<path d="M38082 34860 c0 -14 2 -19 5 -12 2 6 2 18 0 25 -3 6 -5 1 -5 -13z"/>
<path d="M32670 34802 c0 -18 5 -32 10 -32 6 0 8 11 4 28 -10 39 -14 40 -14 4z"/>
<path d="M27010 34775 c0 -40 24 -49 34 -12 10 37 7 47 -14 47 -16 0 -20 -7
-20 -35z"/>
<path d="M26939 34725 c-8 -28 7 -65 26 -65 8 0 15 9 15 20 0 11 -6 20 -14 20
-8 0 -16 10 -18 23 -3 21 -4 21 -9 2z"/>
<path d="M32645 34643 c8 -34 25 -54 25 -30 0 9 7 17 15 17 8 0 15 9 15 20 0
16 -7 20 -31 20 -29 0 -31 -2 -24 -27z"/>
<path d="M32700 34610 c0 -13 7 -20 20 -20 13 0 20 7 20 20 0 13 -7 20 -20 20
-13 0 -20 -7 -20 -20z"/>
<path d="M39521 34604 c0 -11 3 -14 6 -6 3 7 2 16 -1 19 -3 4 -6 -2 -5 -13z"/>
<path d="M38320 34575 c0 -5 5 -17 10 -25 5 -8 10 -10 10 -5 0 6 -5 17 -10 25
-5 8 -10 11 -10 5z"/>
<path d="M32700 34525 c1 -5 9 -26 20 -45 16 -30 19 -32 20 -12 0 15 6 22 20
22 18 0 20 -7 20 -55 0 -42 3 -55 15 -55 10 0 15 -10 15 -34 0 -32 2 -35 30
-34 24 1 30 5 24 17 -3 9 -9 24 -11 34 -3 9 -14 17 -25 17 -16 0 -19 6 -18 38
3 61 1 72 -15 72 -8 0 -15 9 -15 19 0 15 -9 20 -40 23 -23 2 -40 -1 -40 -7z"/>
<path d="M35341 34494 c0 -11 3 -14 6 -6 3 7 2 16 -1 19 -3 4 -6 -2 -5 -13z"/>
<path d="M26880 34475 c0 -8 -9 -15 -19 -15 -22 0 -29 -8 -41 -50 -7 -23 -5
-30 6 -30 8 0 14 9 14 20 0 16 7 20 34 20 29 0 36 4 45 31 14 41 15 39 -14 39
-16 0 -25 -6 -25 -15z"/>
<path d="M38357 34459 c4 -13 8 -18 11 -10 2 7 -1 18 -6 23 -8 8 -9 4 -5 -13z"/>
<path d="M39466 34463 c-6 -14 -5 -15 5 -6 7 7 10 15 7 18 -3 3 -9 -2 -12 -12z"/>
<path d="M39446 34413 c-6 -14 -5 -15 5 -6 7 7 10 15 7 18 -3 3 -9 -2 -12 -12z"/>
<path d="M26880 34369 c0 -5 5 -7 10 -4 6 3 10 8 10 11 0 2 -4 4 -10 4 -5 0
-10 -5 -10 -11z"/>
<path d="M38400 34325 c0 -5 5 -17 10 -25 5 -8 10 -10 10 -5 0 6 -5 17 -10 25
-5 8 -10 11 -10 5z"/>
<path d="M26785 34307 c-4 -10 -5 -21 -1 -24 10 -10 18 4 13 24 -4 17 -4 17
-12 0z"/>
<path d="M26840 34300 c0 -11 7 -20 15 -20 8 0 15 9 15 20 0 11 -7 20 -15 20
-8 0 -15 -9 -15 -20z"/>
<path d="M45641 34284 c0 -11 3 -14 6 -6 3 7 2 16 -1 19 -3 4 -6 -2 -5 -13z"/>
<path d="M32844 34245 c6 -29 4 -35 -10 -35 -11 0 -14 -5 -10 -16 3 -9 6 -18
6 -20 0 -2 19 -4 41 -4 41 0 41 0 35 33 -4 17 -11 34 -16 35 -6 2 -10 12 -10
23 0 13 -7 19 -21 19 -19 0 -20 -4 -15 -35z"/>
<path d="M45660 34225 c0 -5 5 -17 10 -25 5 -8 10 -10 10 -5 0 6 -5 17 -10 25
-5 8 -10 11 -10 5z"/>
<path d="M26770 34190 c0 -11 -7 -20 -15 -20 -8 0 -15 -9 -15 -20 0 -11 7 -20
15 -20 8 0 15 -7 15 -15 0 -22 16 -18 34 9 21 33 11 86 -15 86 -12 0 -19 -7
-19 -20z"/>
<path d="M45510 34206 c0 -2 8 -10 18 -17 15 -13 16 -12 3 4 -13 16 -21 21
-21 13z"/>
<path d="M32859 34095 c4 -50 21 -71 21 -27 0 25 4 32 20 32 11 0 20 -7 20
-15 0 -8 7 -15 15 -15 8 0 15 5 15 10 0 6 -7 13 -15 16 -8 4 -15 15 -15 25 0
15 -6 18 -33 16 -31 -2 -32 -3 -28 -42z"/>
<path d="M38471 34094 c0 -11 3 -14 6 -6 3 7 2 16 -1 19 -3 4 -6 -2 -5 -13z"/>
<path d="M26687 34050 c-4 -16 0 -20 18 -20 18 0 24 -7 29 -35 8 -41 26 -37
26 6 0 19 -5 29 -15 29 -8 0 -15 9 -15 20 0 13 -7 20 -19 20 -10 0 -21 -9 -24
-20z"/>
<path d="M38490 34035 c0 -5 5 -17 10 -25 5 -8 10 -10 10 -5 0 6 -5 17 -10 25
-5 8 -10 11 -10 5z"/>
<path d="M32894 34015 c3 -9 6 -25 6 -36 0 -14 7 -19 25 -19 16 0 25 6 25 15
0 8 7 15 16 15 9 0 14 7 12 18 -2 12 -15 18 -47 20 -37 3 -43 1 -37 -13z"/>
<path d="M39301 34004 c0 -11 3 -14 6 -6 3 7 2 16 -1 19 -3 4 -6 -2 -5 -13z"/>
<path d="M26670 33980 c0 -11 7 -20 15 -20 8 0 15 9 15 20 0 11 -7 20 -15 20
-8 0 -15 -9 -15 -20z"/>
<path d="M32990 33948 c0 -11 -8 -18 -20 -18 -22 0 -24 -11 -14 -72 6 -34 10
-38 35 -38 22 0 29 -5 29 -20 0 -11 7 -20 15 -20 8 0 15 7 15 15 0 9 -7 18
-15 21 -9 4 -15 19 -15 40 0 24 -5 34 -15 34 -18 0 -20 27 -3 32 8 3 8 9 0 24
-10 17 -11 17 -12 2z"/>
<path d="M39276 33935 c-3 -9 -6 -22 -5 -28 0 -7 5 -1 10 12 5 13 8 26 5 28
-2 2 -6 -3 -10 -12z"/>
<path d="M38531 33894 c0 -11 3 -14 6 -6 3 7 2 16 -1 19 -3 4 -6 -2 -5 -13z"/>
<path d="M26624 33855 c-6 -19 -7 -35 -3 -35 5 0 9 7 9 15 0 8 7 15 15 15 8 0
15 9 15 20 0 33 -24 23 -36 -15z"/>
<path d="M26700 33870 c0 -11 5 -20 10 -20 6 0 10 9 10 20 0 11 -4 20 -10 20
-5 0 -10 -9 -10 -20z"/>
<path d="M38551 33814 c0 -11 3 -14 6 -6 3 7 2 16 -1 19 -3 4 -6 -2 -5 -13z"/>
<path d="M32960 33786 c0 -2 7 -9 15 -16 9 -7 15 -8 15 -2 0 5 -7 12 -15 16
-8 3 -15 4 -15 2z"/>
<path d="M26630 33745 c0 -31 -3 -35 -25 -35 -18 0 -28 -7 -35 -26 -14 -35
-13 -44 5 -44 8 0 15 -7 15 -15 0 -8 -7 -15 -15 -15 -8 0 -15 -9 -15 -20 0
-11 7 -20 15 -20 8 0 15 -7 15 -15 0 -8 -7 -15 -15 -15 -8 0 -15 -9 -15 -20 0
-11 6 -20 14 -20 23 0 46 41 46 80 0 19 7 43 15 54 8 10 17 39 21 65 4 25 11
54 16 64 7 14 4 17 -17 17 -22 0 -25 -4 -25 -35z"/>
<path d="M33020 33715 c0 -28 4 -35 20 -35 16 0 20 7 20 35 0 28 -4 35 -20 35
-16 0 -20 -7 -20 -35z"/>
<path d="M38581 33714 c0 -11 3 -14 6 -6 3 7 2 16 -1 19 -3 4 -6 -2 -5 -13z"/>
<path d="M45841 33714 c0 -11 3 -14 6 -6 3 7 2 16 -1 19 -3 4 -6 -2 -5 -13z"/>
<path d="M39191 33674 c0 -11 3 -14 6 -6 3 7 2 16 -1 19 -3 4 -6 -2 -5 -13z"/>
<path d="M33058 33601 c-4 -46 8 -101 22 -101 6 0 10 9 10 20 0 14 7 20 21 20
19 0 21 4 15 33 -4 17 -11 34 -16 35 -6 2 -10 10 -10 18 0 8 -9 14 -19 14 -15
0 -20 -9 -23 -39z"/>
<path d="M26507 33510 c-10 -38 -9 -40 23 -40 20 0 30 5 30 15 0 8 -9 15 -19
15 -11 0 -21 8 -23 18 -3 13 -5 11 -11 -8z"/>
<path d="M33092 33453 c5 -26 38 -29 38 -4 0 15 -6 21 -21 21 -14 0 -19 -5
-17 -17z"/>
<path d="M39111 33434 c0 -11 3 -14 6 -6 3 7 2 16 -1 19 -3 4 -6 -2 -5 -13z"/>
<path d="M26520 33410 c0 -14 -7 -20 -24 -20 -13 0 -26 -7 -30 -15 -3 -9 0
-15 9 -15 10 0 15 -11 15 -36 0 -23 4 -34 12 -32 15 5 44 64 52 106 5 27 3 32
-14 32 -13 0 -20 -7 -20 -20z"/>
<path d="M33130 33356 c0 -32 2 -34 35 -34 28 0 35 4 35 19 0 10 -7 19 -15 19
-8 0 -15 7 -15 15 0 8 -9 15 -20 15 -16 0 -20 -7 -20 -34z"/>
<path d="M45961 33354 c0 -11 3 -14 6 -6 3 7 2 16 -1 19 -3 4 -6 -2 -5 -13z"/>
<path d="M26435 33291 c-5 -16 -3 -26 6 -32 23 -15 39 -10 39 11 0 11 -6 20
-14 20 -8 0 -16 6 -19 13 -2 6 -7 1 -12 -12z"/>
<path d="M45980 33295 c0 -5 5 -17 10 -25 5 -8 10 -10 10 -5 0 6 -5 17 -10 25
-5 8 -10 11 -10 5z"/>
<path d="M33157 33270 c-4 -16 0 -20 19 -20 17 0 24 6 24 20 0 13 -7 20 -19
20 -10 0 -21 -9 -24 -20z"/>
<path d="M26420 33200 c0 -11 7 -20 15 -20 8 0 15 -7 15 -15 0 -8 -9 -15 -20
-15 -13 0 -20 -7 -20 -20 0 -13 7 -20 20 -20 13 0 20 7 20 20 0 11 3 20 8 20
7 0 32 47 32 62 0 4 -16 8 -35 8 -28 0 -35 -4 -35 -20z"/>
<path d="M33170 33191 c4 -16 13 -38 19 -48 8 -14 10 -9 11 30 0 40 -3 47 -19
47 -17 0 -18 -4 -11 -29z"/>
<path d="M33234 33188 c7 -34 13 -44 21 -36 9 8 -7 68 -17 68 -6 0 -8 -13 -4
-32z"/>
<path d="M26372 33090 c0 -14 2 -19 5 -12 2 6 2 18 0 25 -3 6 -5 1 -5 -13z"/>
<path d="M14667 33036 c-10 -70 -9 -174 2 -181 14 -8 31 29 31 67 -1 18 -7 62
-13 98 l-13 65 -7 -49z"/>
<path d="M26380 33025 c0 -8 -7 -15 -15 -15 -8 0 -15 -9 -15 -20 0 -11 -4 -20
-9 -20 -5 0 -11 -7 -15 -15 -3 -9 0 -15 9 -15 8 0 15 7 15 15 0 8 7 15 15 15
8 0 15 7 15 15 0 8 9 15 19 15 10 0 22 7 25 16 9 23 8 24 -19 24 -16 0 -25 -6
-25 -15z"/>
<path d="M33230 33021 c0 -11 4 -23 10 -26 5 -3 12 -27 16 -54 6 -44 8 -47 30
-43 17 3 24 0 24 -12 0 -9 7 -16 15 -16 10 0 15 11 15 35 0 24 -5 35 -15 35
-8 0 -15 7 -15 15 0 8 -9 15 -20 15 -16 0 -20 7 -20 35 0 28 -4 35 -20 35 -13
0 -20 -7 -20 -19z"/>
<path d="M38791 32944 c0 -11 3 -14 6 -6 3 7 2 16 -1 19 -3 4 -6 -2 -5 -13z"/>
<path d="M26368 32933 c-10 -2 -18 -11 -18 -19 0 -8 -8 -14 -17 -14 -10 0 -24
-12 -30 -27 -16 -33 -16 -43 -3 -43 6 0 10 7 10 15 0 8 9 15 20 15 17 0 20 -7
21 -47 l1 -48 8 47 c5 26 18 60 29 74 35 44 27 60 -21 47z"/>
<path d="M38810 32885 c0 -5 5 -17 10 -25 5 -8 10 -10 10 -5 0 6 -5 17 -10 25
-5 8 -10 11 -10 5z"/>
<path d="M33307 32783 c6 -69 12 -93 23 -93 6 0 10 7 10 15 0 8 9 15 20 15 13
0 20 7 20 20 0 13 -7 20 -20 20 -16 0 -20 7 -20 35 0 28 -4 35 -19 35 -16 0
-18 -6 -14 -47z"/>
<path d="M46151 32754 c0 -11 3 -14 6 -6 3 7 2 16 -1 19 -3 4 -6 -2 -5 -13z"/>
<path d="M26310 32728 l1 -33 14 25 c18 32 18 40 0 40 -10 0 -15 -10 -15 -32z"/>
<path d="M26270 32670 c0 -23 35 -28 43 -6 7 18 -1 26 -25 26 -11 0 -18 -7
-18 -20z"/>
<path d="M26270 32606 c0 -22 11 -46 21 -46 15 0 10 48 -6 54 -9 3 -15 0 -15
-8z"/>
<path d="M33410 32600 c0 -13 -7 -20 -20 -20 -24 0 -25 -12 -3 -62 13 -28 23
-38 40 -38 14 0 23 6 23 15 0 8 4 15 9 15 5 0 7 8 4 18 -3 14 -11 18 -29 14
-19 -3 -24 0 -24 17 0 12 6 21 15 21 8 0 15 9 15 20 0 11 -7 20 -15 20 -8 0
-15 -9 -15 -20z"/>
<path d="M26209 32553 c-5 -14 -8 -31 -5 -37 2 -6 5 -3 5 7 1 9 8 17 16 17 8
0 15 9 15 20 0 29 -19 25 -31 -7z"/>
<path d="M46221 32514 c0 -11 3 -14 6 -6 3 7 2 16 -1 19 -3 4 -6 -2 -5 -13z"/>
<path d="M14631 32485 c0 -5 6 -19 15 -30 13 -17 15 -77 14 -420 -3 -1088 -1
-1240 16 -1261 15 -18 15 -18 4 3 -7 15 -10 282 -10 847 0 803 -1 825 -20 848
-11 12 -19 19 -19 13z"/>
<path d="M26185 32467 c-4 -10 -5 -21 -1 -24 10 -10 18 4 13 24 -4 17 -4 17
-12 0z"/>
<path d="M26240 32460 c0 -11 5 -20 10 -20 6 0 10 9 10 20 0 11 -4 20 -10 20
-5 0 -10 -9 -10 -20z"/>
<path d="M33415 32432 c3 -8 5 -17 5 -22 0 -5 16 -8 35 -7 25 1 35 7 35 18 0
12 -11 18 -40 21 -31 3 -39 0 -35 -10z"/>
<path d="M26156 32394 c-9 -23 -8 -24 19 -24 18 0 25 -5 25 -20 0 -16 -7 -20
-35 -20 -32 0 -35 -2 -35 -30 0 -23 4 -30 20 -30 11 0 20 7 20 15 0 8 6 15 13
15 11 0 57 83 57 103 0 4 -18 7 -39 7 -26 0 -41 -5 -45 -16z"/>
<path d="M33450 32350 c0 -11 7 -20 15 -20 8 0 15 9 15 20 0 11 -7 20 -15 20
-8 0 -15 -9 -15 -20z"/>
<path d="M46270 32355 c0 -5 5 -17 10 -25 5 -8 10 -10 10 -5 0 6 -5 17 -10 25
-5 8 -10 11 -10 5z"/>
<path d="M33458 32284 c2 -13 8 -24 13 -24 14 0 10 37 -4 43 -10 4 -13 -2 -9
-19z"/>
<path d="M46291 32294 c0 -11 3 -14 6 -6 3 7 2 16 -1 19 -3 4 -6 -2 -5 -13z"/>
<path d="M33520 32225 c0 -28 -4 -35 -20 -35 -13 0 -20 7 -20 20 0 11 -4 20
-10 20 -16 0 -12 -36 6 -51 9 -7 21 -25 27 -39 10 -25 11 -25 14 -2 6 29 43
31 43 2 0 -11 5 -20 11 -20 6 0 9 6 6 13 -2 6 -13 38 -23 70 -20 65 -34 74
-34 22z"/>
<path d="M38892 32230 c0 -14 2 -19 5 -12 2 6 2 18 0 25 -3 6 -5 1 -5 -13z"/>
<path d="M26130 32210 c0 -11 -7 -20 -15 -20 -10 0 -15 -10 -15 -30 0 -20 5
-30 15 -30 8 0 15 -9 15 -20 0 -11 -7 -20 -15 -20 -8 0 -15 -9 -15 -20 0 -25
36 -27 48 -2 5 9 12 42 15 72 3 30 8 63 12 73 6 13 2 17 -19 17 -19 0 -26 -5
-26 -20z"/>
<path d="M33524 32038 c4 -29 14 -60 22 -69 8 -8 14 -25 14 -37 0 -13 6 -22
15 -22 8 0 15 9 15 20 0 11 7 20 15 20 8 0 15 4 15 10 0 22 -36 90 -47 90 -7
0 -13 9 -13 20 0 14 -7 20 -21 20 -20 0 -21 -3 -15 -52z"/>
<path d="M26060 32008 c0 -28 13 -58 24 -58 7 0 17 15 23 33 10 32 9 33 -19
35 -17 1 -28 -3 -28 -10z"/>
<path d="M26024 31928 c-4 -13 -6 -38 -6 -55 1 -23 -3 -33 -13 -33 -12 0 -15
-15 -15 -70 0 -61 2 -70 18 -70 10 0 23 5 30 12 15 15 16 58 2 58 -5 0 -10 16
-10 35 0 24 5 35 15 35 12 0 15 13 15 55 0 41 -4 55 -14 55 -8 0 -18 -10 -22
-22z"/>
<path d="M46262 31880 c0 -14 2 -19 5 -12 2 6 2 18 0 25 -3 6 -5 1 -5 -13z"/>
<path d="M33620 31821 c0 -11 -5 -21 -11 -23 -7 -2 -8 -14 -1 -38 8 -26 10
-29 11 -12 1 17 7 22 26 22 26 0 29 9 19 48 -8 28 -44 30 -44 3z"/>
<path d="M25990 31645 c0 -8 -8 -15 -18 -15 -20 0 -49 -63 -32 -68 5 -2 10
-19 10 -38 0 -24 5 -34 15 -34 8 0 15 8 15 18 0 10 5 23 11 29 15 15 25 123
10 123 -6 0 -11 -7 -11 -15z"/>
<path d="M46471 31634 c0 -11 3 -14 6 -6 3 7 2 16 -1 19 -3 4 -6 -2 -5 -13z"/>
<path d="M33660 31610 c0 -13 7 -20 20 -20 13 0 20 7 20 20 0 13 -7 20 -20 20
-13 0 -20 -7 -20 -20z"/>
<path d="M33670 31540 c0 -11 5 -20 10 -20 6 0 10 9 10 20 0 11 -4 20 -10 20
-5 0 -10 -9 -10 -20z"/>
<path d="M46500 31535 c0 -5 5 -17 10 -25 5 -8 10 -10 10 -5 0 6 -5 17 -10 25
-5 8 -10 11 -10 5z"/>
<path d="M33670 31465 c0 -23 24 -45 49 -45 6 0 11 16 11 35 0 32 -2 35 -30
35 -25 0 -30 -4 -30 -25z"/>
<path d="M25920 31400 c0 -38 4 -50 15 -50 10 0 15 10 15 28 0 15 3 37 6 50 5
18 2 22 -15 22 -19 0 -21 -6 -21 -50z"/>
<path d="M25867 31360 c-3 -13 0 -20 9 -20 8 0 14 9 14 20 0 11 -4 20 -9 20
-5 0 -11 -9 -14 -20z"/>
<path d="M33715 31300 c3 -5 8 -10 11 -10 2 0 4 5 4 10 0 6 -5 10 -11 10 -5 0
-7 -4 -4 -10z"/>
<path d="M33800 31292 c0 -7 -14 -12 -31 -12 -24 0 -30 -3 -25 -16 3 -9 6 -18
6 -20 0 -2 11 -4 24 -4 17 0 26 7 30 26 4 15 5 29 1 32 -3 3 -5 0 -5 -6z"/>
<path d="M25890 31260 c0 -14 -7 -20 -23 -20 -18 0 -26 -8 -34 -35 -9 -29 -9
-35 3 -35 8 0 14 7 14 15 0 8 9 15 20 15 13 0 20 7 20 20 0 11 5 20 10 20 6 0
10 9 10 20 0 11 -4 20 -10 20 -5 0 -10 -9 -10 -20z"/>
<path d="M33800 31150 c0 -12 -7 -20 -16 -20 -13 0 -15 -7 -10 -32 10 -52 56
-91 56 -48 0 11 -7 20 -15 20 -10 0 -15 10 -15 30 0 23 4 30 20 30 13 0 20 7
20 20 0 13 -7 20 -20 20 -13 0 -20 -7 -20 -20z"/>
<path d="M25811 31128 c-1 -22 4 -28 19 -28 12 0 20 -7 20 -17 0 -15 2 -16 10
-3 6 10 6 16 0 18 -6 2 -10 10 -10 18 0 8 -6 14 -14 14 -8 0 -17 6 -19 13 -3
6 -6 0 -6 -15z"/>
<path d="M25776 31044 c-12 -31 -6 -54 13 -54 10 0 21 -9 24 -20 3 -11 10 -20
16 -20 6 0 11 9 11 20 0 11 -4 20 -10 20 -5 0 -10 16 -10 35 0 28 -4 35 -19
35 -10 0 -22 -7 -25 -16z"/>
<path d="M33840 31010 c0 -11 7 -20 15 -20 17 0 18 2 9 24 -9 23 -24 20 -24
-4z"/>
<path d="M46641 30994 c0 -11 3 -14 6 -6 3 7 2 16 -1 19 -3 4 -6 -2 -5 -13z"/>
<path d="M33870 30959 c0 -6 -9 -9 -20 -6 -17 4 -20 0 -20 -24 0 -46 29 -109
51 -109 15 0 19 7 19 35 0 26 -4 35 -16 35 -14 0 -16 7 -11 40 3 22 3 40 1 40
-2 0 -4 -5 -4 -11z"/>
<path d="M25760 30940 c0 -11 5 -20 10 -20 6 0 10 9 10 20 0 11 -4 20 -10 20
-5 0 -10 -9 -10 -20z"/>
<path d="M46651 30934 c0 -11 3 -14 6 -6 3 7 2 16 -1 19 -3 4 -6 -2 -5 -13z"/>
<path d="M25757 30843 c-12 -11 -8 -23 8 -23 8 0 15 -9 15 -20 0 -13 -7 -20
-20 -20 -11 0 -20 -5 -20 -11 0 -6 -7 -17 -15 -25 -19 -19 -19 -34 -1 -34 8 0
17 -16 21 -37 l7 -38 14 47 c8 26 19 50 24 53 13 8 13 85 0 85 -5 0 -10 7 -10
15 0 16 -12 20 -23 8z"/>
<path d="M46691 30784 c0 -11 3 -14 6 -6 3 7 2 16 -1 19 -3 4 -6 -2 -5 -13z"/>
<path d="M33910 30745 c0 -24 -5 -35 -15 -35 -9 0 -15 -9 -15 -21 0 -17 4 -20
23 -15 12 3 25 6 30 6 8 0 10 62 1 84 -11 28 -24 17 -24 -19z"/>
<path d="M46701 30744 c0 -11 3 -14 6 -6 3 7 2 16 -1 19 -3 4 -6 -2 -5 -13z"/>
<path d="M25697 30660 c-3 -11 -1 -20 4 -20 5 0 9 9 9 20 0 11 -2 20 -4 20 -2
0 -6 -9 -9 -20z"/>
<path d="M33908 30602 c3 -36 6 -38 32 -34 21 3 27 8 23 23 -3 10 -9 19 -14
19 -5 0 -9 7 -9 15 0 8 -8 15 -18 15 -14 0 -17 -7 -14 -38z"/>
<path d="M25710 30591 c0 -10 -9 -21 -20 -24 -19 -5 -26 -30 -21 -80 1 -9 -5
-24 -13 -33 -9 -8 -16 -23 -16 -32 -1 -9 -9 -42 -20 -72 -26 -73 -26 -100 0
-100 14 0 20 7 20 21 0 12 5 19 12 17 23 -8 38 20 44 84 4 35 13 75 20 90 8
15 18 55 22 88 8 55 7 60 -10 60 -11 0 -18 -7 -18 -19z"/>
<path d="M14762 30565 c0 -16 2 -22 5 -12 2 9 2 23 0 30 -3 6 -5 -1 -5 -18z"/>
<path d="M33920 30515 c0 -8 5 -15 10 -15 6 0 10 7 10 15 0 8 -4 15 -10 15 -5
0 -10 -7 -10 -15z"/>
<path d="M46771 30464 c0 -11 3 -14 6 -6 3 7 2 16 -1 19 -3 4 -6 -2 -5 -13z"/>
<path d="M14709 30383 c-8 -20 -8 -49 -1 -98 l10 -70 -5 70 c-2 39 0 82 6 98
6 15 8 27 6 27 -3 0 -10 -12 -16 -27z"/>
<path d="M34010 30385 c0 -14 4 -25 9 -25 4 0 6 11 3 25 -2 14 -6 25 -8 25 -2
0 -4 -11 -4 -25z"/>
<path d="M33970 30317 c8 -57 16 -67 51 -67 22 0 29 5 29 20 0 16 -7 20 -35
20 -33 0 -35 2 -35 35 0 19 -4 35 -8 35 -5 0 -6 -19 -2 -43z"/>
<path d="M46821 30274 c0 -11 3 -14 6 -6 3 7 2 16 -1 19 -3 4 -6 -2 -5 -13z"/>
<path d="M46831 30214 c0 -11 3 -14 6 -6 3 7 2 16 -1 19 -3 4 -6 -2 -5 -13z"/>
<path d="M25641 30204 c0 -11 3 -14 6 -6 3 7 2 16 -1 19 -3 4 -6 -2 -5 -13z"/>
<path d="M14723 30150 c0 -36 2 -50 4 -32 2 17 2 47 0 65 -2 17 -4 3 -4 -33z"/>
<path d="M25580 30160 c0 -11 5 -20 10 -20 6 0 10 -14 10 -31 0 -25 -3 -30
-18 -27 -15 4 -21 -3 -30 -36 -6 -22 -14 -49 -17 -58 -6 -15 -2 -18 24 -18 26
0 33 6 47 38 21 50 30 132 15 132 -6 0 -11 9 -11 20 0 11 -7 20 -15 20 -8 0
-15 -9 -15 -20z"/>
<path d="M46841 30164 c0 -11 3 -14 6 -6 3 7 2 16 -1 19 -3 4 -6 -2 -5 -13z"/>
<path d="M34020 30090 c0 -11 7 -20 15 -20 8 0 15 9 15 20 0 11 -7 20 -15 20
-8 0 -15 -9 -15 -20z"/>
<path d="M14712 30050 c0 -19 2 -27 5 -17 2 9 2 25 0 35 -3 9 -5 1 -5 -18z"/>
<path d="M34080 30025 c0 -8 -4 -15 -10 -15 -12 0 -12 -66 -1 -130 l8 -45 2
48 c1 34 5 47 16 47 8 0 15 7 15 15 0 9 -7 18 -15 21 -8 4 -15 12 -15 19 0 7
7 15 15 19 8 3 15 12 15 21 0 8 -7 15 -15 15 -8 0 -15 -7 -15 -15z"/>
<path d="M46741 30004 c0 -11 3 -14 6 -6 3 7 2 16 -1 19 -3 4 -6 -2 -5 -13z"/>
<path d="M46882 30000 c0 -14 2 -19 5 -12 2 6 2 18 0 25 -3 6 -5 1 -5 -13z"/>
<path d="M14720 30001 c0 -6 4 -13 10 -16 6 -3 7 1 4 9 -7 18 -14 21 -14 7z"/>
<path d="M25530 29915 c0 -8 -4 -15 -10 -15 -5 0 -10 -9 -10 -20 0 -11 5 -20
10 -20 6 0 10 7 10 15 0 8 9 15 20 15 11 0 20 -5 20 -11 0 -5 5 -7 10 -4 6 3
10 17 10 31 0 20 -5 24 -30 24 -20 0 -30 -5 -30 -15z"/>
<path d="M46911 29884 c0 -11 3 -14 6 -6 3 7 2 16 -1 19 -3 4 -6 -2 -5 -13z"/>
<path d="M46922 29825 c0 -16 2 -22 5 -12 2 9 2 23 0 30 -3 6 -5 -1 -5 -18z"/>
<path d="M25510 29809 c0 -15 5 -20 22 -17 34 5 37 38 4 38 -20 0 -26 -5 -26
-21z"/>
<path d="M34120 29796 c0 -25 4 -36 15 -36 8 0 15 -9 15 -20 0 -11 -7 -20 -15
-20 -9 0 -15 -9 -15 -25 0 -17 4 -23 15 -19 18 7 30 84 18 120 -14 42 -33 42
-33 0z"/>
<path d="M46932 29750 c0 -14 2 -19 5 -12 2 6 2 18 0 25 -3 6 -5 1 -5 -13z"/>
<path d="M25542 29740 c0 -14 2 -19 5 -12 2 6 2 18 0 25 -3 6 -5 1 -5 -13z"/>
<path d="M25490 29700 c-9 -18 -8 -20 15 -20 17 0 25 -5 25 -17 0 -9 3 -14 6
-10 11 10 -7 67 -21 67 -8 0 -19 -9 -25 -20z"/>
<path d="M46812 29695 c0 -16 2 -22 5 -12 2 9 2 23 0 30 -3 6 -5 -1 -5 -18z"/>
<path d="M14801 29694 c0 -11 3 -14 6 -6 3 7 2 16 -1 19 -3 4 -6 -2 -5 -13z"/>
<path d="M46946 29675 c8 -37 14 -45 14 -19 0 10 -5 26 -10 34 -8 11 -9 7 -4
-15z"/>
<path d="M25451 29594 c0 -11 3 -14 6 -6 3 7 2 16 -1 19 -3 4 -6 -2 -5 -13z"/>
<path d="M36661 29574 c0 -11 3 -14 6 -6 3 7 2 16 -1 19 -3 4 -6 -2 -5 -13z"/>
<path d="M14802 29535 c0 -16 2 -22 5 -12 2 9 2 23 0 30 -3 6 -5 -1 -5 -18z"/>
<path d="M34190 29535 c0 -14 4 -25 9 -25 4 0 6 11 3 25 -2 14 -6 25 -8 25 -2
0 -4 -11 -4 -25z"/>
<path d="M25426 29525 c-4 -10 1 -15 14 -15 11 0 20 7 20 15 0 8 -6 15 -14 15
-8 0 -16 -7 -20 -15z"/>
<path d="M46981 29514 c0 -11 3 -14 6 -6 3 7 2 16 -1 19 -3 4 -6 -2 -5 -13z"/>
<path d="M46991 29460 c0 -8 4 -24 9 -35 5 -13 9 -14 9 -5 0 8 -4 24 -9 35 -5
13 -9 14 -9 5z"/>
<path d="M46872 29440 c0 -14 2 -19 5 -12 2 6 2 18 0 25 -3 6 -5 1 -5 -13z"/>
<path d="M34170 29405 c0 -19 5 -35 10 -35 6 0 10 7 10 15 0 8 7 15 15 15 8 0
15 9 15 20 0 15 -7 20 -25 20 -22 0 -25 -4 -25 -35z"/>
<path d="M34230 29385 c0 -8 4 -15 10 -15 5 0 7 7 4 15 -4 8 -8 15 -10 15 -2
0 -4 -7 -4 -15z"/>
<path d="M46882 29340 c0 -14 2 -19 5 -12 2 6 2 18 0 25 -3 6 -5 1 -5 -13z"/>
<path d="M34220 29310 c0 -13 7 -20 20 -20 18 0 20 -7 20 -65 0 -37 4 -65 10
-65 13 0 13 28 -1 107 -9 51 -15 63 -30 63 -12 0 -19 -7 -19 -20z"/>
<path d="M25410 29280 c0 -11 5 -20 10 -20 6 0 10 -15 11 -32 l1 -33 9 30 c5
19 5 31 -1 33 -6 2 -10 12 -10 23 0 10 -4 19 -10 19 -5 0 -10 -9 -10 -20z"/>
<path d="M47041 29264 c0 -11 3 -14 6 -6 3 7 2 16 -1 19 -3 4 -6 -2 -5 -13z"/>
<path d="M14852 29190 c0 -14 2 -19 5 -12 2 6 2 18 0 25 -3 6 -5 1 -5 -13z"/>
<path d="M25372 29186 c-10 -22 -9 -26 3 -26 8 0 15 -9 15 -20 0 -11 -6 -20
-14 -20 -15 0 -41 -81 -33 -102 3 -7 6 -3 6 10 1 14 7 22 19 22 20 0 37 27 47
75 3 17 8 38 11 48 4 12 0 17 -14 17 -11 0 -22 5 -24 11 -2 6 -9 0 -16 -15z"/>
<path d="M47061 29184 c0 -11 3 -14 6 -6 3 7 2 16 -1 19 -3 4 -6 -2 -5 -13z"/>
<path d="M47071 29124 c0 -11 3 -14 6 -6 3 7 2 16 -1 19 -3 4 -6 -2 -5 -13z"/>
<path d="M34244 29093 c4 -16 12 -56 18 -90 10 -60 12 -63 39 -63 l28 0 -20
57 c-10 31 -19 71 -19 90 0 29 -3 33 -26 33 -24 0 -26 -3 -20 -27z"/>
<path d="M46951 29094 c0 -11 3 -14 6 -6 3 7 2 16 -1 19 -3 4 -6 -2 -5 -13z"/>
<path d="M47092 29000 c0 -14 2 -19 5 -12 2 6 2 18 0 25 -3 6 -5 1 -5 -13z"/>
<path d="M25360 28995 c0 -8 4 -15 9 -15 5 0 11 7 15 15 3 9 0 15 -9 15 -8 0
-15 -7 -15 -15z"/>
<path d="M25320 28905 c0 -30 3 -35 24 -35 24 0 36 16 36 51 0 14 -7 19 -30
19 -28 0 -30 -3 -30 -35z"/>
<path d="M34270 28892 c0 -22 32 -62 49 -62 6 0 11 9 11 20 0 13 -7 20 -20 20
-13 0 -20 7 -20 20 0 11 -4 20 -10 20 -5 0 -10 -8 -10 -18z"/>
<path d="M47131 28814 c0 -11 3 -14 6 -6 3 7 2 16 -1 19 -3 4 -6 -2 -5 -13z"/>
<path d="M25307 28793 c-14 -13 -6 -23 18 -23 16 0 25 6 25 15 0 15 -31 21
-43 8z"/>
<path d="M34330 28785 c0 -8 7 -15 15 -15 8 0 15 7 15 15 0 8 -7 15 -15 15 -8
0 -15 -7 -15 -15z"/>
<path d="M49512 28770 c0 -14 2 -19 5 -12 2 6 2 18 0 25 -3 6 -5 1 -5 -13z"/>
<path d="M14911 28744 c0 -11 3 -14 6 -6 3 7 2 16 -1 19 -3 4 -6 -2 -5 -13z"/>
<path d="M25276 28688 c-25 -58 -27 -131 -4 -136 12 -2 19 5 24 25 3 15 13 38
20 50 7 12 16 40 19 62 4 37 3 41 -18 41 -17 0 -27 -11 -41 -42z"/>
<path d="M34327 28710 c3 -11 12 -20 19 -20 8 0 14 -7 14 -17 0 -9 3 -14 6
-10 3 3 3 19 -1 36 -4 21 -13 31 -25 31 -13 0 -17 -5 -13 -20z"/>
<path d="M47151 28704 c0 -11 3 -14 6 -6 3 7 2 16 -1 19 -3 4 -6 -2 -5 -13z"/>
<path d="M34340 28604 c0 -14 4 -23 9 -20 5 3 11 -3 14 -14 7 -26 37 -26 37 0
0 11 -6 20 -14 20 -7 0 -16 9 -19 20 -7 29 -27 25 -27 -6z"/>
<path d="M47171 28614 c0 -11 3 -14 6 -6 3 7 2 16 -1 19 -3 4 -6 -2 -5 -13z"/>
<path d="M47181 28574 c0 -11 3 -14 6 -6 3 7 2 16 -1 19 -3 4 -6 -2 -5 -13z"/>
<path d="M34400 28532 c0 -7 -9 -12 -21 -12 -25 0 -23 -33 2 -38 11 -2 18 6
22 25 3 15 3 30 1 32 -2 2 -4 -1 -4 -7z"/>
<path d="M47181 28504 c0 -11 3 -14 6 -6 3 7 2 16 -1 19 -3 4 -6 -2 -5 -13z"/>
<path d="M25250 28430 c0 -11 7 -20 15 -20 8 0 15 9 15 20 0 11 -7 20 -15 20
-8 0 -15 -9 -15 -20z"/>
<path d="M34378 28427 c-2 -12 -3 -28 0 -35 5 -17 22 -15 22 3 0 8 9 15 20 15
13 0 20 7 20 20 0 31 -56 28 -62 -3z"/>
<path d="M47202 28405 c0 -16 2 -22 5 -12 2 9 2 23 0 30 -3 6 -5 -1 -5 -18z"/>
<path d="M47211 28354 c0 -11 3 -14 6 -6 3 7 2 16 -1 19 -3 4 -6 -2 -5 -13z"/>
<path d="M34409 28301 c3 -45 15 -71 32 -71 5 0 4 12 -2 27 -5 14 -7 39 -4 53
5 21 2 29 -12 32 -16 4 -18 -1 -14 -41z"/>
<path d="M25228 28313 c-10 -2 -18 -13 -18 -24 0 -10 -4 -19 -9 -19 -5 0 -11
-9 -14 -20 -3 -13 0 -20 9 -20 8 0 14 9 14 20 0 11 6 20 14 20 7 0 16 11 18
25 3 14 5 24 4 24 0 -1 -9 -3 -18 -6z"/>
<path d="M47232 28270 c0 -14 2 -19 5 -12 2 6 2 18 0 25 -3 6 -5 1 -5 -13z"/>
<path d="M25220 28220 c0 -11 5 -20 10 -20 6 0 10 9 10 20 0 11 -4 20 -10 20
-5 0 -10 -9 -10 -20z"/>
<path d="M47242 28200 c0 -14 2 -19 5 -12 2 6 2 18 0 25 -3 6 -5 1 -5 -13z"/>
<path d="M34430 28135 c0 -29 4 -35 21 -35 16 0 19 4 14 18 -4 9 -10 25 -12
35 -9 30 -23 19 -23 -18z"/>
<path d="M25160 28130 c0 -16 5 -30 10 -30 6 0 10 14 10 30 0 17 -4 30 -10 30
-5 0 -10 -13 -10 -30z"/>
<path d="M47272 28055 c0 -16 2 -22 5 -12 2 9 2 23 0 30 -3 6 -5 -1 -5 -18z"/>
<path d="M25175 28029 c-10 -43 -1 -46 12 -4 6 19 7 35 3 35 -5 0 -11 -14 -15
-31z"/>
<path d="M34470 28040 c0 -14 7 -20 21 -20 15 0 19 4 15 16 -3 9 -6 18 -6 20
0 2 -7 4 -15 4 -8 0 -15 -9 -15 -20z"/>
<path d="M47283 27975 c0 -22 2 -30 4 -17 2 12 2 30 0 40 -3 9 -5 -1 -4 -23z"/>
<path d="M34477 27923 c3 -38 10 -69 15 -71 4 -2 8 -12 8 -23 0 -12 7 -19 20
-19 13 0 20 7 20 20 0 11 -7 20 -15 20 -15 0 -21 38 -16 108 1 26 -2 32 -18
32 -19 0 -20 -5 -14 -67z"/>
<path d="M25132 27886 c-16 -37 -16 -38 15 -34 29 3 47 38 20 38 -9 0 -17 5
-19 11 -2 6 -9 -1 -16 -15z"/>
<path d="M25110 27790 c0 -11 6 -20 13 -20 7 0 18 9 25 20 11 18 10 20 -13 20
-18 0 -25 -5 -25 -20z"/>
<path d="M22641 27774 c0 -11 3 -14 6 -6 3 7 2 16 -1 19 -3 4 -6 -2 -5 -13z"/>
<path d="M34541 27764 c0 -11 3 -14 6 -6 3 7 2 16 -1 19 -3 4 -6 -2 -5 -13z"/>
<path d="M47342 27700 c0 -19 2 -27 5 -17 2 9 2 25 0 35 -3 9 -5 1 -5 -18z"/>
<path d="M34520 27690 c0 -11 5 -20 10 -20 6 0 10 9 10 20 0 11 -4 20 -10 20
-5 0 -10 -9 -10 -20z"/>
<path d="M47342 27625 c0 -16 2 -22 5 -12 2 9 2 23 0 30 -3 6 -5 -1 -5 -18z"/>
<path d="M34522 27610 c0 -19 2 -27 5 -17 2 9 2 25 0 35 -3 9 -5 1 -5 -18z"/>
<path d="M25110 27585 c0 -8 5 -15 10 -15 6 0 10 7 10 15 0 8 -4 15 -10 15 -5
0 -10 -7 -10 -15z"/>
<path d="M47351 27580 c0 -8 4 -24 9 -35 5 -13 9 -14 9 -5 0 8 -4 24 -9 35 -5
13 -9 14 -9 5z"/>
<path d="M15122 27530 c0 -14 2 -19 5 -12 2 6 2 18 0 25 -3 6 -5 1 -5 -13z"/>
<path d="M25068 27538 c0 -7 -2 -35 -2 -63 -1 -27 -5 -58 -10 -67 -5 -12 -4
-18 3 -18 6 0 11 7 11 15 0 8 4 15 9 15 5 0 11 16 13 35 3 26 0 35 -10 35 -11
0 -13 8 -8 30 3 17 3 30 1 30 -3 0 -6 -6 -7 -12z"/>
<path d="M34580 27480 c0 -11 5 -20 10 -20 6 0 10 9 10 20 0 11 -4 20 -10 20
-5 0 -10 -9 -10 -20z"/>
<path d="M47382 27420 c0 -19 2 -27 5 -17 2 9 2 25 0 35 -3 9 -5 1 -5 -18z"/>
<path d="M22591 27414 c0 -11 3 -14 6 -6 3 7 2 16 -1 19 -3 4 -6 -2 -5 -13z"/>
<path d="M34580 27306 c0 -27 3 -34 15 -30 8 4 15 13 15 21 0 8 -7 21 -15 29
-13 14 -15 11 -15 -20z"/>
<path d="M47391 27324 c0 -11 3 -14 6 -6 3 7 2 16 -1 19 -3 4 -6 -2 -5 -13z"/>
<path d="M25040 27300 c0 -13 7 -20 20 -20 13 0 20 7 20 20 0 13 -7 20 -20 20
-13 0 -20 -7 -20 -20z"/>
<path d="M47401 27284 c0 -11 3 -14 6 -6 3 7 2 16 -1 19 -3 4 -6 -2 -5 -13z"/>
<path d="M25007 27243 c-14 -13 -6 -33 13 -33 13 0 20 7 20 20 0 19 -20 27
-33 13z"/>
<path d="M34590 27221 c0 -28 14 -41 46 -41 9 0 14 11 14 35 0 32 -2 35 -30
35 -26 0 -30 -3 -30 -29z"/>
<path d="M47421 27214 c0 -11 3 -14 6 -6 3 7 2 16 -1 19 -3 4 -6 -2 -5 -13z"/>
<path d="M25031 27174 c0 -11 3 -14 6 -6 3 7 2 16 -1 19 -3 4 -6 -2 -5 -13z"/>
<path d="M25006 27079 c-10 -52 -7 -79 9 -79 12 0 15 13 15 55 0 60 -14 74
-24 24z"/>
<path d="M47441 27084 c0 -11 3 -14 6 -6 3 7 2 16 -1 19 -3 4 -6 -2 -5 -13z"/>
<path d="M34622 27035 c0 -16 2 -22 5 -12 2 9 2 23 0 30 -3 6 -5 -1 -5 -18z"/>
<path d="M47451 26994 c0 -11 3 -14 6 -6 3 7 2 16 -1 19 -3 4 -6 -2 -5 -13z"/>
<path d="M34628 26954 c2 -13 8 -24 13 -24 14 0 10 37 -4 43 -10 4 -13 -2 -9
-19z"/>
<path d="M25000 26944 c0 -8 5 -12 10 -9 6 3 10 10 10 16 0 5 -4 9 -10 9 -5 0
-10 -7 -10 -16z"/>
<path d="M47461 26944 c0 -11 3 -14 6 -6 3 7 2 16 -1 19 -3 4 -6 -2 -5 -13z"/>
<path d="M34680 26880 c0 -11 5 -20 10 -20 6 0 10 9 10 20 0 11 -4 20 -10 20
-5 0 -10 -9 -10 -20z"/>
<path d="M47482 26860 c0 -14 2 -19 5 -12 2 6 2 18 0 25 -3 6 -5 1 -5 -13z"/>
<path d="M47483 26770 c0 -36 2 -50 4 -32 2 17 2 47 0 65 -2 17 -4 3 -4 -33z"/>
<path d="M47372 26745 c0 -16 2 -22 5 -12 2 9 2 23 0 30 -3 6 -5 -1 -5 -18z"/>
<path d="M34685 26740 c3 -5 8 -10 11 -10 2 0 4 5 4 10 0 6 -5 10 -11 10 -5 0
-7 -4 -4 -10z"/>
<path d="M24972 26698 c-1 -10 -6 -18 -11 -18 -17 0 -56 -63 -43 -68 7 -2 12
-10 12 -18 0 -8 5 -14 10 -14 6 0 10 5 10 12 0 6 7 19 16 29 10 11 14 30 11
56 -2 21 -4 30 -5 21z"/>
<path d="M47491 26684 c0 -11 3 -14 6 -6 3 7 2 16 -1 19 -3 4 -6 -2 -5 -13z"/>
<path d="M34696 26595 c7 -101 8 -105 33 -98 25 6 26 16 6 37 -8 8 -15 32 -15
53 -1 21 -7 49 -15 63 -14 23 -15 19 -9 -55z"/>
<path d="M47500 26655 c0 -5 5 -17 10 -25 5 -8 10 -10 10 -5 0 6 -5 17 -10 25
-5 8 -10 11 -10 5z"/>
<path d="M49891 26564 c0 -11 3 -14 6 -6 3 7 2 16 -1 19 -3 4 -6 -2 -5 -13z"/>
<path d="M24923 26545 c-18 -19 -16 -45 2 -45 10 0 15 10 15 30 0 34 0 34 -17
15z"/>
<path d="M47531 26544 c0 -11 3 -14 6 -6 3 7 2 16 -1 19 -3 4 -6 -2 -5 -13z"/>
<path d="M22432 26530 c0 -14 2 -19 5 -12 2 6 2 18 0 25 -3 6 -5 1 -5 -13z"/>
<path d="M47541 26443 c0 -46 2 -83 7 -83 4 0 6 26 4 57 -5 101 -9 111 -11 26z"/>
<path d="M47422 26460 c0 -14 2 -19 5 -12 2 6 2 18 0 25 -3 6 -5 1 -5 -13z"/>
<path d="M34756 26448 c-9 -36 -7 -48 9 -48 11 0 13 8 8 33 -8 41 -9 43 -17
15z"/>
<path d="M24900 26420 c0 -11 5 -20 10 -20 6 0 10 9 10 20 0 11 -4 20 -10 20
-5 0 -10 -9 -10 -20z"/>
<path d="M24876 26344 c-8 -20 -8 -58 0 -78 5 -13 11 -8 25 19 25 46 25 75 0
75 -10 0 -22 -7 -25 -16z"/>
<path d="M47551 26324 c0 -11 3 -14 6 -6 3 7 2 16 -1 19 -3 4 -6 -2 -5 -13z"/>
<path d="M34760 26293 c0 -17 19 -35 29 -29 18 12 12 36 -9 36 -11 0 -20 -3
-20 -7z"/>
<path d="M49932 26260 c0 -14 2 -19 5 -12 2 6 2 18 0 25 -3 6 -5 1 -5 -13z"/>
<path d="M47582 26210 c0 -19 2 -27 5 -17 2 9 2 25 0 35 -3 9 -5 1 -5 -18z"/>
<path d="M34773 26185 c0 -22 2 -30 4 -17 2 12 2 30 0 40 -3 9 -5 -1 -4 -23z"/>
<path d="M22391 26174 c0 -11 3 -14 6 -6 3 7 2 16 -1 19 -3 4 -6 -2 -5 -13z"/>
<path d="M47591 26049 c0 -13 4 -33 9 -44 7 -14 8 -8 3 20 -7 46 -13 59 -12
24z"/>
<path d="M24833 26030 c-3 -11 -9 -20 -13 -20 -11 0 -20 -39 -13 -56 9 -24 27
-15 56 30 34 54 34 66 1 66 -17 0 -28 -6 -31 -20z"/>
<path d="M34796 25997 c3 -10 9 -15 12 -12 3 3 0 11 -7 18 -10 9 -11 8 -5 -6z"/>
<path d="M34813 25944 c-15 -15 -17 -44 -4 -44 7 0 23 51 18 56 -1 1 -8 -4
-14 -12z"/>
<path d="M47621 25934 c0 -11 3 -14 6 -6 3 7 2 16 -1 19 -3 4 -6 -2 -5 -13z"/>
<path d="M47637 25812 c-4 -20 -3 -51 1 -67 6 -22 8 -14 9 38 0 37 -1 67 -2
67 -1 0 -5 -17 -8 -38z"/>
<path d="M47522 25820 c0 -14 2 -19 5 -12 2 6 2 18 0 25 -3 6 -5 1 -5 -13z"/>
<path d="M34833 25703 c5 -71 11 -99 22 -106 9 -5 15 -23 15 -45 l1 -37 14 25
c20 35 19 56 -10 140 -14 40 -25 84 -25 97 0 13 -5 23 -12 23 -8 0 -9 -27 -5
-97z"/>
<path d="M24787 25679 c-29 -49 -35 -89 -14 -89 7 0 20 15 29 33 23 46 26 59
18 82 -6 16 -10 13 -33 -26z"/>
<path d="M47645 25700 c-3 -5 -1 -10 4 -10 6 0 11 5 11 10 0 6 -2 10 -4 10 -3
0 -8 -4 -11 -10z"/>
<path d="M47661 25634 c0 -11 3 -14 6 -6 3 7 2 16 -1 19 -3 4 -6 -2 -5 -13z"/>
<path d="M47671 25605 c1 -19 18 -51 18 -35 0 8 -4 22 -9 30 -5 8 -9 11 -9 5z"/>
<path d="M47693 25445 c0 -22 2 -30 4 -17 2 12 2 30 0 40 -3 9 -5 -1 -4 -23z"/>
<path d="M34882 25360 c1 -19 6 -40 11 -47 5 -7 11 -50 14 -95 3 -46 12 -92
19 -103 10 -13 14 -51 14 -117 0 -87 2 -99 20 -110 16 -10 20 -24 20 -65 0
-29 5 -53 10 -53 6 0 10 8 10 18 0 10 7 28 16 40 26 37 20 104 -17 189 -10 24
-15 43 -10 43 4 0 2 34 -5 76 -7 41 -11 89 -7 105 3 18 1 29 -6 29 -6 0 -20
17 -30 38 -11 20 -30 48 -41 62 l-21 25 3 -35z"/>
<path d="M24760 25355 c0 -8 -9 -15 -19 -15 -19 0 -31 -19 -31 -48 0 -10 3
-13 8 -7 4 6 19 16 35 22 19 9 27 20 27 38 0 14 -4 25 -10 25 -5 0 -10 -7 -10
-15z"/>
<path d="M47701 25344 c0 -11 3 -14 6 -6 3 7 2 16 -1 19 -3 4 -6 -2 -5 -13z"/>
<path d="M47711 25304 c0 -11 3 -14 6 -6 3 7 2 16 -1 19 -3 4 -6 -2 -5 -13z"/>
<path d="M47721 25264 c0 -11 3 -14 6 -6 3 7 2 16 -1 19 -3 4 -6 -2 -5 -13z"/>
<path d="M24705 25190 c3 -5 8 -10 11 -10 2 0 4 5 4 10 0 6 -5 10 -11 10 -5 0
-7 -4 -4 -10z"/>
<path d="M47726 25121 c-4 -45 -2 -90 4 -105 13 -36 20 -33 10 6 -5 17 -7 64
-3 105 3 40 4 73 1 73 -3 0 -8 -36 -12 -79z"/>
<path d="M50091 25184 c0 -11 3 -14 6 -6 3 7 2 16 -1 19 -3 4 -6 -2 -5 -13z"/>
<path d="M24705 25070 c-3 -5 -1 -10 6 -10 6 0 0 -9 -14 -20 -14 -11 -38 -45
-52 -76 -23 -49 -25 -61 -16 -102 5 -26 6 -48 2 -50 -4 -1 -3 -20 2 -42 9 -32
8 -43 -4 -57 -25 -29 -51 -93 -45 -109 3 -9 1 -12 -4 -9 -16 10 -11 -52 5 -69
9 -9 22 -28 30 -43 l15 -28 1 30 c1 48 6 65 26 87 14 16 18 39 20 107 4 160 9
219 19 232 18 24 26 52 30 106 3 49 -7 76 -21 53z"/>
<path d="M47781 24864 c0 -11 3 -14 6 -6 3 7 2 16 -1 19 -3 4 -6 -2 -5 -13z"/>
<path d="M47782 24830 c0 -8 4 -26 8 -40 6 -20 8 -21 8 -5 0 11 -3 29 -8 40
-5 12 -8 14 -8 5z"/>
<path d="M47672 24710 c0 -14 2 -19 5 -12 2 6 2 18 0 25 -3 6 -5 1 -5 -13z"/>
<path d="M47790 24659 c0 -13 5 -31 10 -39 7 -11 8 -5 4 20 -8 43 -14 51 -14
19z"/>
<path d="M22161 24584 c0 -11 3 -14 6 -6 3 7 2 16 -1 19 -3 4 -6 -2 -5 -13z"/>
<path d="M47812 24550 c0 -14 2 -19 5 -12 2 6 2 18 0 25 -3 6 -5 1 -5 -13z"/>
<path d="M35006 24535 c3 -14 1 -39 -6 -55 -10 -25 -9 -33 12 -62 28 -41 26
-25 34 -214 5 -113 11 -164 20 -175 8 -9 14 -38 14 -66 0 -41 3 -51 16 -49 18
3 38 32 30 44 -3 4 0 27 5 51 8 36 7 46 -10 67 -11 14 -17 32 -14 41 5 12 3
14 -7 8 -8 -5 -11 -3 -8 6 3 8 -2 26 -10 41 -14 24 -14 34 -3 78 7 28 11 54 7
57 -3 3 1 22 10 41 8 20 11 38 6 41 -9 6 -19 41 -29 99 -3 18 -11 32 -19 32
-8 0 -14 9 -14 20 0 13 -7 20 -20 20 -17 0 -19 -4 -14 -25z"/>
<path d="M47822 24495 c0 -16 2 -22 5 -12 2 9 2 23 0 30 -3 6 -5 -1 -5 -18z"/>
<path d="M50191 24464 c0 -11 3 -14 6 -6 3 7 2 16 -1 19 -3 4 -6 -2 -5 -13z"/>
<path d="M47832 24440 c0 -14 2 -19 5 -12 2 6 2 18 0 25 -3 6 -5 1 -5 -13z"/>
<path d="M47821 24364 c0 -11 3 -14 6 -6 3 7 2 16 -1 19 -3 4 -6 -2 -5 -13z"/>
<path d="M47722 24350 c0 -14 2 -19 5 -12 2 6 2 18 0 25 -3 6 -5 1 -5 -13z"/>
<path d="M24608 24314 c-4 -3 -14 -7 -23 -8 -26 -4 -79 -156 -57 -164 7 -2 12
-13 13 -25 0 -21 36 -117 40 -107 1 3 2 32 4 65 2 86 14 143 31 149 9 4 14 21
14 51 0 41 -7 54 -22 39z"/>
<path d="M47832 24290 c0 -14 2 -19 5 -12 2 6 2 18 0 25 -3 6 -5 1 -5 -13z"/>
<path d="M47840 24251 c0 -6 4 -13 10 -16 6 -3 7 1 4 9 -7 18 -14 21 -14 7z"/>
<path d="M37533 24185 c0 -33 2 -45 4 -27 2 18 2 45 0 60 -2 15 -4 0 -4 -33z"/>
<path d="M47871 24164 c0 -11 3 -14 6 -6 3 7 2 16 -1 19 -3 4 -6 -2 -5 -13z"/>
<path d="M47881 24114 c0 -11 3 -14 6 -6 3 7 2 16 -1 19 -3 4 -6 -2 -5 -13z"/>
<path d="M47883 23962 l-1 -77 8 70 c5 39 6 73 2 77 -4 4 -8 -28 -9 -70z"/>
<path d="M24547 23980 c-3 -10 -1 -20 4 -22 5 -2 -1 -30 -14 -63 -31 -76 -43
-182 -22 -182 9 0 15 10 15 21 0 12 9 35 20 51 16 24 20 47 20 123 0 85 -11
119 -23 72z"/>
<path d="M47892 23855 c0 -11 3 -29 8 -40 11 -25 11 1 0 35 -6 20 -8 21 -8 5z"/>
<path d="M47793 23805 c0 -27 2 -38 4 -22 2 15 2 37 0 50 -2 12 -4 0 -4 -28z"/>
<path d="M22061 23804 c0 -11 3 -14 6 -6 3 7 2 16 -1 19 -3 4 -6 -2 -5 -13z"/>
<path d="M50236 23804 c-9 -24 -8 -29 17 -60 l22 -29 6 45 c6 44 -1 59 -27 60
-7 0 -15 -7 -18 -16z"/>
<path d="M35099 23789 c-8 -66 -7 -115 5 -128 22 -25 38 -101 32 -150 -6 -40
-5 -44 7 -28 8 9 19 17 26 17 6 0 12 19 13 43 4 83 4 146 -1 142 -5 -6 -46 57
-43 66 0 4 -8 15 -18 24 -11 10 -20 16 -21 14z"/>
<path d="M47912 23770 c0 -14 2 -19 5 -12 2 6 2 18 0 25 -3 6 -5 1 -5 -13z"/>
<path d="M47922 23720 c0 -14 2 -19 5 -12 2 6 2 18 0 25 -3 6 -5 1 -5 -13z"/>
<path d="M24520 23673 c0 -5 5 -15 10 -23 8 -12 10 -11 10 8 0 12 -4 22 -10
22 -5 0 -10 -3 -10 -7z"/>
<path d="M47933 23610 c0 -41 2 -58 4 -37 2 20 2 54 0 75 -2 20 -4 3 -4 -38z"/>
<path d="M24500 23525 c-7 -8 -16 -12 -21 -10 -8 6 -35 -34 -31 -47 1 -4 -5
-26 -14 -48 -13 -32 -14 -46 -5 -68 7 -16 13 -42 15 -58 2 -16 4 -32 5 -35 0
-4 11 -9 22 -12 20 -5 21 -3 16 37 -9 63 2 118 25 124 15 4 18 14 18 68 0 65
-7 76 -30 49z"/>
<path d="M50323 23470 c0 -36 2 -50 4 -32 2 17 2 47 0 65 -2 17 -4 3 -4 -33z"/>
<path d="M47930 23486 c0 -8 4 -17 9 -20 5 -4 7 3 4 14 -6 23 -13 26 -13 6z"/>
<path d="M47952 23430 c0 -14 2 -19 5 -12 2 6 2 18 0 25 -3 6 -5 1 -5 -13z"/>
<path d="M35150 23325 c0 -34 7 -69 17 -88 11 -21 17 -55 18 -99 0 -38 2 -62
4 -55 2 6 10 20 19 29 22 26 27 127 8 172 -9 21 -14 41 -12 45 6 10 -5 24 -31
39 -23 12 -23 11 -23 -43z"/>
<path d="M22038 23363 c6 -2 18 -2 25 0 6 3 1 5 -13 5 -14 0 -19 -2 -12 -5z"/>
<path d="M37544 23325 c-3 -20 -12 -35 -20 -35 -8 0 -14 -7 -14 -15 0 -8 -7
-15 -16 -15 -9 0 -18 -9 -21 -20 -3 -11 -12 -20 -19 -20 -8 0 -14 -9 -14 -20
0 -11 7 -20 15 -20 8 0 15 -7 15 -16 0 -11 8 -14 27 -12 35 4 43 28 9 28 -19
0 -26 5 -26 20 0 11 7 20 15 20 8 0 15 7 15 15 0 8 9 15 20 15 13 0 20 7 20
20 0 11 7 20 15 20 10 0 15 11 15 35 0 24 -5 35 -15 35 -8 0 -17 -14 -21 -35z"/>
<path d="M22102 23338 c3 -7 13 -15 24 -17 16 -3 17 -1 5 13 -16 19 -34 21
-29 4z"/>
<path d="M22077 23270 c3 -11 12 -20 19 -20 8 0 14 9 14 20 0 13 -7 20 -19 20
-14 0 -18 -5 -14 -20z"/>
<path d="M22140 23271 c0 -12 6 -21 15 -21 8 0 15 -7 15 -15 0 -10 -10 -15
-30 -15 -28 0 -30 -2 -20 -20 6 -11 20 -20 30 -20 11 0 20 -7 20 -15 0 -8 9
-15 20 -15 11 0 20 7 20 15 0 8 -7 15 -15 15 -8 0 -15 9 -15 20 0 12 7 20 16
20 14 0 13 5 -5 33 -24 38 -51 48 -51 18z"/>
<path d="M47977 23190 c-4 -62 -2 -112 5 -132 17 -52 28 -56 13 -5 -9 32 -12
74 -8 141 3 53 4 96 1 96 -3 0 -8 -45 -11 -100z"/>
<path d="M24432 23118 c-12 -18 -17 -35 -11 -36 6 -3 3 -14 -6 -29 -14 -20
-16 -46 -13 -133 3 -100 9 -132 23 -118 3 3 7 39 9 79 2 41 9 88 16 104 17 39
25 144 13 156 -7 7 -17 -1 -31 -23z"/>
<path d="M37392 23138 c-16 -16 -15 -28 3 -28 8 0 15 9 15 20 0 23 -2 24 -18
8z"/>
<path d="M37367 23082 c1 -8 3 -20 3 -28 0 -8 9 -14 20 -14 13 0 20 7 20 20 0
13 -7 20 -19 20 -11 0 -21 3 -24 8 -2 4 -2 1 0 -6z"/>
<path d="M22240 23061 c0 -11 -4 -21 -9 -23 -4 -1 -5 -12 0 -23 8 -19 8 -19
15 3 3 12 13 22 20 22 8 0 14 9 14 20 0 13 -7 20 -20 20 -13 0 -20 -7 -20 -19z"/>
<path d="M22320 23025 c0 -8 4 -15 10 -15 5 0 7 7 4 15 -4 8 -8 15 -10 15 -2
0 -4 -7 -4 -15z"/>
<path d="M22320 22955 c0 -8 -9 -15 -19 -15 -14 0 -18 -5 -14 -20 4 -14 14
-20 34 -20 22 0 29 -5 29 -20 0 -13 7 -20 20 -20 16 0 20 -7 20 -30 0 -40 26
-40 35 0 8 37 5 45 -17 42 -11 -2 -18 3 -18 12 0 10 -9 16 -21 16 -19 0 -20 4
-15 35 6 31 4 35 -14 35 -11 0 -20 -7 -20 -15z"/>
<path d="M35193 22914 c-2 -47 1 -59 19 -74 18 -14 21 -27 20 -74 -1 -59 11
-73 30 -31 6 13 14 23 17 21 3 -2 7 27 9 66 2 39 0 68 -5 65 -4 -2 -24 15 -43
39 -19 23 -37 43 -40 43 -3 1 -6 -24 -7 -55z"/>
<path d="M37276 22954 c-9 -25 -8 -26 24 -19 26 6 30 4 30 -14 0 -12 -6 -21
-15 -21 -8 0 -15 -7 -15 -15 0 -8 -9 -15 -20 -15 -12 0 -20 7 -20 16 0 29 -25
8 -28 -23 -2 -21 -10 -33 -23 -36 -14 -4 -19 -14 -19 -36 0 -20 -5 -31 -14
-31 -18 0 -28 -39 -20 -78 6 -28 4 -30 -15 -25 -11 3 -21 12 -21 19 0 19 -16
18 -24 -2 -9 -22 -8 -24 9 -24 8 0 15 -7 15 -15 0 -26 49 -18 75 13 13 15 25
34 25 42 0 9 12 29 28 46 42 48 72 92 72 107 0 8 8 25 19 38 28 37 53 89 41
89 -5 0 -10 -7 -10 -15 0 -8 -9 -15 -20 -15 -11 0 -20 7 -20 15 0 20 -46 20
-54 -1z"/>
<path d="M48021 22944 c0 -11 3 -14 6 -6 3 7 2 16 -1 19 -3 4 -6 -2 -5 -13z"/>
<path d="M48033 22835 c0 -22 2 -30 4 -17 2 12 2 30 0 40 -3 9 -5 -1 -4 -23z"/>
<path d="M22460 22793 c0 -30 -3 -33 -31 -33 -24 0 -30 -4 -27 -17 2 -11 14
-19 31 -21 15 -2 27 -9 27 -18 0 -8 9 -14 20 -14 11 0 20 7 20 15 0 8 -9 15
-20 15 -26 0 -27 37 -2 42 18 3 18 4 0 33 l-18 30 0 -32z"/>
<path d="M47921 22754 c0 -11 3 -14 6 -6 3 7 2 16 -1 19 -3 4 -6 -2 -5 -13z"/>
<path d="M48032 22740 c0 -14 2 -19 5 -12 2 6 2 18 0 25 -3 6 -5 1 -5 -13z"/>
<path d="M24397 22712 c-10 -10 -14 -21 -11 -24 6 -7 -25 -59 -42 -70 -19 -12
-15 -92 6 -134 11 -21 20 -44 20 -51 0 -7 3 -13 8 -13 4 0 7 30 7 68 0 56 4
71 23 90 18 18 22 33 22 87 0 68 -6 77 -33 47z"/>
<path d="M48047 22655 c3 -27 7 -52 9 -54 7 -8 2 54 -6 79 -6 17 -7 9 -3 -25z"/>
<path d="M22530 22641 c0 -15 6 -21 21 -21 25 0 22 33 -4 38 -12 2 -17 -3 -17
-17z"/>
<path d="M22600 22575 c0 -18 5 -25 20 -25 20 0 20 1 4 25 -9 14 -18 25 -20
25 -2 0 -4 -11 -4 -25z"/>
<path d="M37027 22573 c-4 -3 -7 -16 -7 -29 0 -13 -8 -24 -20 -27 -11 -3 -20
-12 -20 -21 0 -9 8 -16 20 -16 11 0 20 7 20 15 0 8 7 15 15 15 10 0 15 11 15
35 0 33 -8 43 -23 28z"/>
<path d="M37090 22545 c0 -19 4 -35 8 -35 5 0 16 16 25 35 l17 35 -25 0 c-22
0 -25 -4 -25 -35z"/>
<path d="M22537 22530 c3 -11 9 -20 14 -20 5 0 9 9 9 20 0 11 -6 20 -14 20 -9
0 -12 -7 -9 -20z"/>
<path d="M22640 22513 c0 -26 -4 -33 -20 -33 -23 0 -28 -38 -8 -58 17 -17 58
-15 58 3 0 8 9 15 21 15 19 0 20 1 3 28 -9 16 -25 39 -35 53 l-19 24 0 -32z"/>
<path d="M35256 22494 c-8 -37 1 -80 20 -109 8 -11 14 -39 14 -63 0 -36 2 -41
13 -30 19 20 36 88 32 130 -6 59 -14 76 -45 91 -28 14 -28 14 -34 -19z"/>
<path d="M48082 22475 c0 -16 2 -22 5 -12 2 9 2 23 0 30 -3 6 -5 -1 -5 -18z"/>
<path d="M36980 22390 c0 -43 -3 -50 -20 -50 -16 0 -20 7 -20 35 0 24 -5 35
-15 35 -10 0 -15 -11 -15 -35 0 -24 5 -35 15 -35 8 0 15 -9 15 -20 0 -11 -7
-20 -15 -20 -11 0 -15 -11 -15 -37 l0 -38 23 34 c12 19 27 43 33 53 6 10 18
26 28 37 9 10 20 35 23 55 5 32 3 36 -16 36 -19 0 -21 -6 -21 -50z"/>
<path d="M48082 22373 c-1 -34 -6 -65 -12 -68 -13 -8 -13 -82 0 -87 6 -2 12
-13 14 -25 3 -13 10 -31 16 -40 10 -16 11 -16 5 2 -4 11 -8 29 -11 40 -2 11
-9 30 -15 42 -10 18 -9 31 0 60 7 21 11 61 9 88 -4 49 -4 49 -6 -12z"/>
<path d="M22710 22390 c0 -15 7 -20 25 -20 23 0 24 2 13 20 -7 11 -18 20 -25
20 -7 0 -13 -9 -13 -20z"/>
<path d="M22640 22360 c0 -6 7 -13 15 -17 9 -3 23 -20 32 -37 9 -17 18 -25 20
-18 3 6 11 12 19 12 8 0 14 9 14 20 0 11 -7 20 -15 20 -8 0 -15 7 -15 15 0 10
-11 15 -35 15 -19 0 -35 -5 -35 -10z"/>
<path d="M22772 22283 c5 -26 38 -29 38 -4 0 15 -6 21 -21 21 -14 0 -19 -5
-17 -17z"/>
<path d="M36840 22289 c0 -7 -7 -17 -16 -24 -9 -6 -18 -32 -21 -58 -5 -43 -4
-47 16 -47 12 0 21 6 21 15 0 8 7 15 15 15 12 0 15 13 15 55 0 42 -3 55 -15
55 -8 0 -15 -5 -15 -11z"/>
<path d="M24345 22240 c-3 -6 -11 -7 -17 -4 -6 4 -8 2 -5 -3 4 -6 0 -24 -8
-39 -8 -17 -15 -23 -16 -14 -1 8 -5 -7 -10 -34 -5 -35 -4 -61 6 -90 8 -23 14
-57 14 -76 -1 -32 -2 -33 -9 -10 -11 35 -12 2 -1 -37 7 -25 5 -41 -12 -75 -12
-24 -28 -48 -36 -54 -8 -6 -11 -18 -8 -27 3 -9 -1 -23 -9 -32 -12 -11 -14 -23
-8 -43 8 -29 11 -40 13 -58 0 -7 10 -14 21 -17 17 -4 20 0 20 33 0 27 6 43 19
52 19 13 24 64 34 318 2 43 10 92 20 114 21 48 26 97 10 103 -6 2 -14 -1 -18
-7z"/>
<path d="M22752 22213 c5 -25 28 -28 28 -4 0 12 -6 21 -16 21 -9 0 -14 -7 -12
-17z"/>
<path d="M47983 22180 c0 -25 2 -35 4 -22 2 12 2 32 0 45 -2 12 -4 2 -4 -23z"/>
<path d="M50471 22194 c0 -11 3 -14 6 -6 3 7 2 16 -1 19 -3 4 -6 -2 -5 -13z"/>
<path d="M22810 22181 c0 -11 -5 -21 -11 -23 -7 -2 2 -19 20 -38 23 -25 31
-30 31 -17 0 9 7 17 15 17 8 0 15 9 15 20 0 11 -7 20 -15 20 -8 0 -15 9 -15
20 0 13 -7 20 -20 20 -13 0 -20 -7 -20 -19z"/>
<path d="M36800 22104 c0 -17 22 -14 28 4 2 7 -3 12 -12 12 -9 0 -16 -7 -16
-16z"/>
<path d="M35298 22055 c-2 -36 2 -56 19 -84 15 -24 22 -52 23 -83 0 -50 12
-62 30 -29 7 14 7 20 -1 23 -8 3 -5 11 6 22 17 16 17 23 6 70 -6 28 -13 58
-14 66 -2 8 -6 15 -9 15 -4 0 -18 10 -31 23 l-25 23 -4 -46z"/>
<path d="M48121 22084 c0 -11 3 -14 6 -6 3 7 2 16 -1 19 -3 4 -6 -2 -5 -13z"/>
<path d="M36700 22070 c0 -11 7 -20 15 -20 8 0 15 9 15 20 0 11 -7 20 -15 20
-8 0 -15 -9 -15 -20z"/>
<path d="M48131 22034 c0 -11 3 -14 6 -6 3 7 2 16 -1 19 -3 4 -6 -2 -5 -13z"/>
<path d="M22990 22030 c0 -5 5 -10 11 -10 5 0 7 5 4 10 -3 6 -8 10 -11 10 -2
0 -4 -4 -4 -10z"/>
<path d="M22920 21996 c0 -13 6 -29 14 -35 11 -9 15 -7 20 11 10 38 7 48 -14
48 -14 0 -20 -7 -20 -24z"/>
<path d="M36690 21985 c0 -37 22 -49 34 -19 12 32 6 54 -14 54 -16 0 -20 -7
-20 -35z"/>
<path d="M23020 21991 c0 -6 -7 -11 -15 -11 -8 0 -15 -7 -15 -15 0 -22 37 -18
43 5 3 11 1 23 -4 26 -5 3 -9 0 -9 -5z"/>
<path d="M36590 21930 c0 -11 -6 -20 -14 -20 -19 0 -63 -61 -58 -82 2 -10 12
-18 23 -18 12 0 19 -7 19 -20 0 -13 -7 -20 -20 -20 -16 0 -20 -7 -20 -30 l0
-31 30 23 c17 12 30 25 30 29 0 4 6 14 13 21 33 35 89 128 77 128 -6 0 -10 9
-10 20 0 16 -7 20 -35 20 -28 0 -35 -4 -35 -20z"/>
<path d="M48022 21920 c0 -19 2 -27 5 -17 2 9 2 25 0 35 -3 9 -5 1 -5 -18z"/>
<path d="M48132 21925 c0 -16 2 -22 5 -12 2 9 2 23 0 30 -3 6 -5 -1 -5 -18z"/>
<path d="M23090 21895 c0 -8 4 -15 10 -15 5 0 7 7 4 15 -4 8 -8 15 -10 15 -2
0 -4 -7 -4 -15z"/>
<path d="M48141 21824 c1 -27 5 -62 9 -79 5 -18 6 1 3 45 -7 86 -14 107 -12
34z"/>
<path d="M23030 21834 c0 -3 16 -26 36 -50 37 -44 64 -57 64 -29 0 8 -9 15
-20 15 -13 0 -20 7 -20 20 0 11 -7 20 -15 20 -8 0 -15 7 -15 15 0 8 -7 15 -15
15 -8 0 -15 -3 -15 -6z"/>
<path d="M36472 21790 c-10 -17 -10 -20 3 -20 8 0 15 9 15 20 0 11 -1 20 -3
20 -1 0 -8 -9 -15 -20z"/>
<path d="M23200 21719 c0 -38 -4 -48 -20 -52 -15 -4 -20 0 -20 14 0 10 -4 19
-10 19 -17 0 -11 -28 13 -53 23 -26 100 -121 154 -191 17 -22 32 -47 32 -53 1
-18 31 -16 31 2 0 10 11 15 35 15 28 0 35 4 35 19 0 26 -26 47 -34 26 -8 -22
-36 -18 -36 5 0 11 7 20 15 20 24 0 18 16 -18 47 -18 16 -36 37 -40 46 -3 9
-11 17 -17 17 -5 0 -10 7 -10 15 0 8 -9 15 -20 15 -11 0 -20 7 -20 15 0 8 -7
15 -15 15 -10 0 -15 10 -15 28 0 15 -9 38 -20 52 l-20 25 0 -46z"/>
<path d="M36413 21714 c-37 -49 -39 -54 -18 -54 8 0 15 -7 15 -15 0 -8 9 -15
20 -15 11 0 20 -5 20 -10 0 -6 14 -1 30 12 41 30 42 68 1 68 -25 0 -30 4 -33
29 l-3 28 -32 -43z"/>
<path d="M50506 21684 c-3 -9 -6 -22 -6 -31 0 -13 2 -13 15 1 16 16 20 46 6
46 -5 0 -12 -7 -15 -16z"/>
<path d="M48160 21676 c0 -8 4 -17 9 -20 5 -4 7 3 4 14 -6 23 -13 26 -13 6z"/>
<path d="M35345 21630 c-9 -14 4 -88 16 -96 20 -12 32 -60 30 -119 l-1 -60 28
57 c30 61 36 126 14 164 -6 10 -12 15 -12 11 0 -5 -12 5 -26 22 -27 33 -39 38
-49 21z"/>
<path d="M36330 21610 c-10 -19 -8 -20 35 -20 38 0 45 3 45 20 0 16 -7 20 -35
20 -24 0 -37 -6 -45 -20z"/>
<path d="M48182 21600 c0 -14 2 -19 5 -12 2 6 2 18 0 25 -3 6 -5 1 -5 -13z"/>
<path d="M36310 21505 c0 -39 4 -55 13 -55 22 0 47 35 54 74 6 36 5 36 -31 36
l-36 0 0 -55z"/>
<path d="M48193 21525 c0 -22 2 -30 4 -17 2 12 2 30 0 40 -3 9 -5 -1 -4 -23z"/>
<path d="M36252 21510 c-10 -17 -10 -20 3 -20 8 0 15 9 15 20 0 11 -1 20 -3
20 -1 0 -8 -9 -15 -20z"/>
<path d="M48182 21455 c0 -16 2 -22 5 -12 2 9 2 23 0 30 -3 6 -5 -1 -5 -18z"/>
<path d="M36171 21406 l-24 -26 26 0 c17 0 27 -5 27 -15 0 -8 9 -15 20 -15 11
0 20 7 20 15 0 8 -9 15 -19 15 -14 0 -21 8 -23 26 l-3 26 -24 -26z"/>
<path d="M48163 21403 c-13 -34 -8 -85 10 -94 9 -6 17 -18 17 -28 0 -9 7 -26
14 -37 13 -16 12 -12 0 26 -9 25 -20 51 -26 57 -6 8 -8 30 -4 53 6 41 0 53
-11 23z"/>
<path d="M24244 21376 c-10 -8 -19 -18 -20 -23 -1 -16 -27 -62 -33 -59 -3 2
-6 -25 -7 -59 0 -37 3 -62 9 -58 5 3 6 -11 2 -36 -4 -27 -3 -41 4 -41 6 0 11
-15 11 -32 l1 -33 15 28 c11 20 14 45 10 84 -3 37 1 71 10 97 31 84 38 117 24
126 -10 6 -9 9 1 13 8 3 9 6 3 6 -5 1 -19 -5 -30 -13z"/>
<path d="M48083 21310 c0 -47 2 -66 4 -42 2 23 2 61 0 85 -2 23 -4 4 -4 -43z"/>
<path d="M35390 21340 c0 -5 5 -10 10 -10 6 0 10 5 10 10 0 6 -4 10 -10 10 -5
0 -10 -4 -10 -10z"/>
<path d="M50573 21305 c0 -22 2 -30 4 -17 2 12 2 30 0 40 -3 9 -5 -1 -4 -23z"/>
<path d="M23450 21283 c13 -18 27 -33 31 -33 3 0 18 -18 33 -40 29 -44 46 -51
46 -20 0 13 -7 20 -20 20 -11 0 -20 7 -20 15 0 8 7 15 15 15 8 0 15 7 15 15 0
9 9 15 22 15 21 0 21 0 2 21 -16 18 -19 19 -22 5 -4 -20 -32 -21 -32 -1 0 8
-9 15 -20 15 -11 0 -20 -7 -20 -15 0 -20 -9 -19 -33 3 -17 14 -16 11 3 -15z"/>
<path d="M36200 21300 c0 -5 5 -10 10 -10 6 0 10 5 10 10 0 6 -4 10 -10 10 -5
0 -10 -4 -10 -10z"/>
<path d="M36100 21260 c0 -22 -35 -29 -42 -8 -3 9 -6 9 -12 0 -4 -7 -2 -12 3
-12 6 0 11 -7 11 -15 0 -10 11 -15 35 -15 24 0 35 5 35 15 0 8 6 15 13 15 8 0
22 9 32 20 18 20 17 20 -28 20 -40 0 -47 -3 -47 -20z"/>
<path d="M48222 21200 c0 -14 2 -19 5 -12 2 6 2 18 0 25 -3 6 -5 1 -5 -13z"/>
<path d="M35400 21148 c0 -51 4 -67 20 -81 12 -10 20 -29 20 -47 0 -18 4 -29
10 -25 6 3 10 0 10 -7 0 -7 7 -3 15 9 8 12 12 28 9 36 -3 8 -1 18 5 22 6 3 11
13 11 22 0 9 -3 14 -6 10 -3 -3 -20 22 -37 56 -44 83 -57 85 -57 5z"/>
<path d="M23643 21172 c-20 -3 -23 -10 -23 -44 0 -32 8 -52 40 -94 22 -29 52
-65 67 -80 l28 -28 7 40 c4 21 7 53 7 69 1 30 -1 31 -34 27 -30 -4 -35 -1 -35
17 0 13 6 21 16 21 14 0 15 2 3 17 -13 15 -14 15 -17 0 -2 -10 -12 -17 -23
-17 -27 0 -25 38 2 42 21 3 21 3 3 18 -11 9 -29 14 -41 12z"/>
<path d="M36060 21155 c0 -8 -9 -15 -20 -15 -13 0 -20 -7 -20 -20 0 -27 16
-25 51 7 34 33 36 43 9 43 -11 0 -20 -7 -20 -15z"/>
<path d="M35902 21088 c-7 -7 -12 -22 -12 -35 0 -19 5 -23 30 -23 20 0 30 -5
30 -15 0 -8 4 -15 9 -15 5 0 14 7 21 15 10 12 10 15 -4 15 -12 0 -16 9 -16 35
0 30 -3 35 -23 35 -13 0 -28 -5 -35 -12z"/>
<path d="M48233 21030 c0 -41 2 -58 4 -37 2 20 2 54 0 75 -2 20 -4 3 -4 -38z"/>
<path d="M23800 20955 c0 -24 5 -35 15 -35 8 0 15 -7 15 -15 0 -8 9 -15 20
-15 11 0 20 7 20 15 0 8 -7 15 -16 15 -10 0 -14 7 -13 23 4 27 -7 47 -27 47
-9 0 -14 -11 -14 -35z"/>
<path d="M35880 20975 c0 -10 -11 -15 -35 -15 -28 0 -35 -4 -35 -19 0 -26 74
-34 95 -11 22 25 19 60 -5 60 -11 0 -20 -7 -20 -15z"/>
<path d="M48121 20954 c0 -11 3 -14 6 -6 3 7 2 16 -1 19 -3 4 -6 -2 -5 -13z"/>
<path d="M48236 20928 c-8 -32 5 -177 17 -185 6 -3 6 14 1 48 -5 30 -9 78 -8
107 0 28 0 52 -2 52 -1 0 -4 -10 -8 -22z"/>
<path d="M23910 20871 c0 -12 6 -21 15 -21 8 0 15 -7 15 -15 0 -8 -7 -15 -15
-15 -8 0 -15 -9 -15 -20 0 -11 -4 -20 -10 -20 -19 0 -10 -17 33 -61 47 -50 72
-53 82 -8 4 16 13 29 21 29 8 0 14 9 14 20 0 13 -7 20 -20 20 -11 0 -20 6 -21
13 -1 6 -23 32 -50 56 -43 39 -49 41 -49 22z"/>
<path d="M23840 20816 c0 -2 7 -9 15 -16 12 -10 15 -10 15 4 0 9 -7 16 -15 16
-8 0 -15 -2 -15 -4z"/>
<path d="M24187 20800 c3 -11 9 -20 14 -20 5 0 9 9 9 20 0 11 -6 20 -14 20 -9
0 -12 -7 -9 -20z"/>
<path d="M35710 20800 c0 -25 -37 -28 -42 -3 -3 15 -4 15 -17 0 -12 -15 -11
-17 3 -17 10 0 16 -8 16 -21 0 -19 4 -21 38 -14 41 7 65 25 45 32 -7 3 -13 13
-13 24 0 10 -7 19 -15 19 -8 0 -15 -9 -15 -20z"/>
<path d="M35780 20804 c0 -14 3 -14 15 -4 8 7 15 14 15 16 0 2 -7 4 -15 4 -8
0 -15 -7 -15 -16z"/>
<path d="M50611 20797 c-7 -10 -10 -17 -7 -17 4 0 0 -10 -8 -22 -9 -12 -16
-32 -16 -43 0 -24 36 -85 50 -85 11 0 12 106 1 154 -5 26 -7 28 -20 13z"/>
<path d="M24128 20783 c7 -3 16 -2 19 1 4 3 -2 6 -13 5 -11 0 -14 -3 -6 -6z"/>
<path d="M48259 20718 c-2 -27 3 -68 11 -95 7 -20 8 -14 3 22 -4 28 -6 58 -5
68 1 19 -7 24 -9 5z"/>
<path d="M35600 20690 c0 -13 7 -20 20 -20 13 0 20 7 20 20 0 13 -7 20 -20 20
-13 0 -20 -7 -20 -20z"/>
<path d="M35458 20693 c-39 -10 -13 -92 30 -93 6 0 12 9 12 20 0 13 -7 20 -20
20 -13 0 -20 7 -20 20 0 13 7 20 20 20 11 0 20 5 20 10 0 10 -12 11 -42 3z"/>
<path d="M24080 20620 c0 -13 7 -20 20 -20 13 0 20 7 20 20 0 13 -7 20 -20 20
-13 0 -20 -7 -20 -20z"/>
<path d="M24156 20609 c-3 -17 -6 -42 -6 -55 0 -15 -6 -24 -15 -24 -8 0 -15
-4 -15 -10 0 -5 14 -10 30 -10 l30 0 0 65 c0 68 -13 87 -24 34z"/>
<path d="M48272 20565 c0 -16 2 -22 5 -12 2 9 2 23 0 30 -3 6 -5 -1 -5 -18z"/>
<path d="M48172 20555 c0 -16 2 -22 5 -12 2 9 2 23 0 30 -3 6 -5 -1 -5 -18z"/>
<path d="M35490 20520 c0 -5 9 -10 20 -10 11 0 20 5 20 10 0 6 -9 10 -20 10
-11 0 -20 -4 -20 -10z"/>
<path d="M48276 20505 c-9 -26 -7 -32 5 -12 6 10 9 21 6 23 -2 3 -7 -2 -11
-11z"/>
<path d="M48281 20403 c-1 -39 3 -83 9 -98 5 -14 12 -40 15 -58 4 -17 8 -34
11 -37 8 -7 -4 63 -16 94 -5 14 -7 45 -4 69 3 23 1 56 -5 72 -8 25 -9 19 -10
-42z"/>
<path d="M48321 20195 c1 -19 18 -51 18 -35 0 8 -4 22 -9 30 -5 8 -9 11 -9 5z"/>
<path d="M48334 20012 c0 -26 -2 -63 -3 -82 -5 -47 6 -128 20 -148 9 -15 9
-14 3 3 -4 11 -8 75 -8 142 -1 67 -3 124 -6 126 -3 3 -5 -16 -6 -41z"/>
<path d="M48242 19745 c0 -16 2 -22 5 -12 2 9 2 23 0 30 -3 6 -5 -1 -5 -18z"/>
<path d="M50687 19725 c2 -22 9 -42 14 -46 14 -8 -13 -72 -37 -90 -11 -8 -32
-30 -49 -48 -20 -22 -3 -12 48 28 42 34 77 65 77 67 0 3 -7 21 -15 41 -8 19
-16 50 -16 67 l-1 31 -8 -30 c-7 -30 -7 -30 -12 -5 -3 14 -3 7 -1 -15z"/>
<path d="M48350 19753 c0 -5 5 -15 10 -23 8 -12 10 -11 10 8 0 12 -4 22 -10
22 -5 0 -10 -3 -10 -7z"/>
<path d="M48373 19630 c0 -47 2 -66 4 -42 2 23 2 61 0 85 -2 23 -4 4 -4 -43z"/>
<path d="M48385 19517 c3 -15 8 -66 10 -114 5 -82 21 -170 30 -161 3 2 0 20
-5 38 -5 19 -12 76 -15 126 -3 51 -10 103 -15 116 -10 22 -10 22 -5 -5z"/>
<path d="M50689 19383 c-13 -16 -12 -17 4 -4 16 13 21 21 13 21 -2 0 -10 -8
-17 -17z"/>
<path d="M50464 19368 l-19 -23 23 19 c12 11 22 21 22 23 0 8 -8 2 -26 -19z"/>
<path d="M50389 19283 c-13 -16 -12 -17 4 -4 16 13 21 21 13 21 -2 0 -10 -8
-17 -17z"/>
<path d="M50334 19218 l-29 -33 33 29 c17 17 32 31 32 33 0 8 -8 1 -36 -29z"/>
<path d="M48431 19194 c0 -11 3 -14 6 -6 3 7 2 16 -1 19 -3 4 -6 -2 -5 -13z"/>
<path d="M50260 19135 c-24 -25 -42 -45 -39 -45 3 0 25 20 49 45 24 25 42 45
39 45 -3 0 -25 -20 -49 -45z"/>
<path d="M48442 19095 c0 -16 2 -22 5 -12 2 9 2 23 0 30 -3 6 -5 -1 -5 -18z"/>
<path d="M48425 19040 c-4 -12 -5 -24 -2 -27 3 -2 8 5 12 17 4 12 5 24 2 27
-3 2 -8 -5 -12 -17z"/>
<path d="M50174 19038 l-19 -23 23 19 c12 11 22 21 22 23 0 8 -8 2 -26 -19z"/>
<path d="M48416 18954 c-9 -67 -7 -154 3 -154 4 0 11 -15 14 -32 7 -43 26 -92
33 -85 3 3 1 15 -6 26 -6 12 -13 36 -16 54 -14 92 -20 166 -16 200 2 20 2 37
-1 37 -2 0 -7 -21 -11 -46z"/>
<path d="M50055 18908 l-70 -73 73 70 c67 64 77 75 69 75 -1 0 -34 -33 -72
-72z"/>
<path d="M50259 18893 c-13 -16 -12 -17 4 -4 16 13 21 21 13 21 -2 0 -10 -8
-17 -17z"/>
<path d="M49824 18648 l-19 -23 23 19 c12 11 22 21 22 23 0 8 -8 2 -26 -19z"/>
<path d="M48471 18644 c0 -11 3 -14 6 -6 3 7 2 16 -1 19 -3 4 -6 -2 -5 -13z"/>
<path d="M48477 18593 c-9 -8 -7 -160 2 -192 3 -13 6 27 6 88 0 61 0 111 -1
111 0 0 -4 -3 -7 -7z"/>
<path d="M49450 18273 l-325 -328 328 325 c180 179 327 326 327 327 0 7 -28
-20 -330 -324z"/>
<path d="M49779 18373 c-13 -16 -12 -17 4 -4 9 7 17 15 17 17 0 8 -8 3 -21
-13z"/>
<path d="M48492 18350 c0 -14 2 -19 5 -12 2 6 2 18 0 25 -3 6 -5 1 -5 -13z"/>
<path d="M48493 18205 c0 -22 2 -30 4 -17 2 12 2 30 0 40 -3 9 -5 -1 -4 -23z"/>
<path d="M48504 18135 c4 -16 12 -34 17 -40 5 -5 4 6 -2 25 -15 45 -24 54 -15
15z"/>
<path d="M48532 18060 c0 -14 2 -19 5 -12 2 6 2 18 0 25 -3 6 -5 1 -5 -13z"/>
<path d="M48542 17970 c0 -14 2 -19 5 -12 2 6 2 18 0 25 -3 6 -5 1 -5 -13z"/>
<path d="M48535 17900 c-4 -19 -9 -46 -11 -59 -2 -13 -8 -28 -15 -32 -8 -4
-10 -20 -6 -44 3 -21 2 -59 -4 -85 -20 -92 27 -182 93 -178 l33 1 -33 4 c-24
3 -38 13 -53 36 -16 27 -19 49 -17 147 0 63 5 120 10 127 5 6 8 17 7 25 -1 7
1 25 5 40 5 15 6 33 4 40 -3 7 -8 -3 -13 -22z"/>
<path d="M49319 17913 c-13 -16 -12 -17 4 -4 9 7 17 15 17 17 0 8 -8 3 -21
-13z"/>
<path d="M48915 17768 l-70 -73 73 70 c67 64 77 75 69 75 -1 0 -34 -33 -72
-72z"/>
<path d="M48779 17643 c-13 -16 -12 -17 4 -4 16 13 21 21 13 21 -2 0 -10 -8
-17 -17z"/>
<path d="M19970 17596 c0 -2 8 -10 18 -17 15 -13 16 -12 3 4 -13 16 -21 21
-21 13z"/>
<path d="M48694 17568 l-29 -33 33 29 c30 28 37 36 29 36 -2 0 -16 -15 -33
-32z"/>
<path d="M20125 17420 c10 -11 20 -20 23 -20 3 0 -3 9 -13 20 -10 11 -20 20
-23 20 -3 0 3 -9 13 -20z"/>
<path d="M20440 17075 c19 -19 36 -35 39 -35 3 0 -10 16 -29 35 -19 19 -36 35
-39 35 -3 0 10 -16 29 -35z"/>
<path d="M20790 16705 c91 -91 167 -165 170 -165 3 0 -69 74 -160 165 -91 91
-167 165 -170 165 -3 0 69 -74 160 -165z"/>
<path d="M21100 16395 c13 -14 26 -25 28 -25 3 0 -5 11 -18 25 -13 14 -26 25
-28 25 -3 0 5 -11 18 -25z"/>
<path d="M21275 16220 c71 -71 132 -130 135 -130 2 0 -54 59 -125 130 -71 72
-132 130 -135 130 -2 0 54 -58 125 -130z"/>
<path d="M78899 16003 c-13 -16 -12 -17 4 -4 16 13 21 21 13 21 -2 0 -10 -8
-17 -17z"/>
<path d="M21625 15890 c21 -22 41 -40 44 -40 3 0 -13 18 -34 40 -21 22 -41 40
-44 40 -3 0 13 -18 34 -40z"/>
<path d="M21975 15570 c10 -11 20 -20 23 -20 3 0 -3 9 -13 20 -10 11 -20 20
-23 20 -3 0 3 -9 13 -20z"/>
<path d="M22125 15440 c10 -11 20 -20 23 -20 3 0 -3 9 -13 20 -10 11 -20 20
-23 20 -3 0 3 -9 13 -20z"/>
<path d="M46694 15167 c-7 -20 -2 -47 11 -50 14 -3 19 43 6 56 -7 7 -12 6 -17
-6z"/>
<path d="M46711 14734 c0 -11 3 -14 6 -6 3 7 2 16 -1 19 -3 4 -6 -2 -5 -13z"/>
<path d="M46732 14730 c0 -14 2 -19 5 -12 2 6 2 18 0 25 -3 6 -5 1 -5 -13z"/>
<path d="M46753 14313 c-8 -3 -13 -24 -13 -54 0 -28 4 -48 9 -45 5 4 12 0 14
-6 3 -7 6 15 6 50 1 34 0 62 -1 61 -2 0 -9 -3 -15 -6z"/>
<path d="M46753 13883 c-15 -71 -10 -171 10 -190 16 -16 17 -11 17 105 0 122
-12 158 -27 85z"/>
<path d="M48675 13693 c5 -10 10 -33 13 -50 5 -40 18 -42 34 -7 14 30 3 53
-31 66 -20 7 -22 6 -16 -9z"/>
<path d="M46800 13305 c-13 -16 -18 -157 -9 -253 3 -35 6 -40 15 -27 9 12 8
26 -3 58 -17 47 -11 191 9 214 6 8 9 16 6 18 -3 3 -11 -2 -18 -10z"/>
<path d="M48712 11012 c-9 -6 -12 -29 -10 -73 l3 -64 1235 0 1235 0 -3 65 c-2
36 -5 66 -6 67 -5 5 -87 5 -1196 4 -619 0 -1152 1 -1185 4 -33 4 -66 2 -73 -3z"/>
<path d="M33868 10313 c7 -3 16 -2 19 1 4 3 -2 6 -13 5 -11 0 -14 -3 -6 -6z"/>
<path d="M38478 10313 c6 -2 18 -2 25 0 6 3 1 5 -13 5 -14 0 -19 -2 -12 -5z"/>
<path d="M38048 10273 c7 -3 16 -2 19 1 4 3 -2 6 -13 5 -11 0 -14 -3 -6 -6z"/>
<path d="M34478 10263 c7 -3 16 -2 19 1 4 3 -2 6 -13 5 -11 0 -14 -3 -6 -6z"/>
<path d="M37868 10263 c6 -2 18 -2 25 0 6 3 1 5 -13 5 -14 0 -19 -2 -12 -5z"/>
<path d="M35148 10213 c7 -3 16 -2 19 1 4 3 -2 6 -13 5 -11 0 -14 -3 -6 -6z"/>
<path d="M35188 10213 c7 -3 16 -2 19 1 4 3 -2 6 -13 5 -11 0 -14 -3 -6 -6z"/>
<path d="M35383 10213 c54 -2 139 -2 190 0 51 1 7 3 -98 3 -104 0 -146 -2 -92
-3z"/>
<path d="M36813 10213 c59 -2 154 -2 210 0 56 1 8 3 -108 3 -115 0 -161 -2
-102 -3z"/>
<path d="M37168 10213 c6 -2 18 -2 25 0 6 3 1 5 -13 5 -14 0 -19 -2 -12 -5z"/>
</g>
</svg>
